<?xml version="1.0" encoding="UTF-8"?><svg xmlns="http://www.w3.org/2000/svg" xmlns:xlink="http://www.w3.org/1999/xlink" viewBox="0 0 2806.09 2800"><defs><style>.cls-1{fill:url(#linear-gradient);}.cls-2{fill:#fcfcfc;}.cls-3,.cls-4,.cls-5{fill:#fff;}.cls-6{fill:#91b3fa;}.cls-7{fill:#bdd0fb;}.cls-4{mix-blend-mode:soft-light;}.cls-8{fill:url(#linear-gradient-8);}.cls-9{fill:url(#linear-gradient-9);}.cls-10{fill:url(#linear-gradient-3);}.cls-11{fill:url(#linear-gradient-4);}.cls-12{fill:url(#linear-gradient-2);}.cls-13{fill:url(#linear-gradient-6);}.cls-14{fill:url(#linear-gradient-7);}.cls-15{fill:url(#linear-gradient-5);}.cls-16{opacity:.3;}.cls-17{fill:url(#linear-gradient-41);}.cls-18{fill:url(#linear-gradient-40);}.cls-19{fill:url(#linear-gradient-43);}.cls-20{fill:url(#linear-gradient-42);}.cls-21{fill:url(#linear-gradient-45);}.cls-22{fill:url(#linear-gradient-46);}.cls-23{fill:url(#linear-gradient-44);}.cls-24{fill:url(#linear-gradient-47);}.cls-25{fill:url(#linear-gradient-48);}.cls-26{fill:url(#linear-gradient-14);}.cls-27{fill:url(#linear-gradient-18);}.cls-28{fill:url(#linear-gradient-22);}.cls-29{fill:url(#linear-gradient-20);}.cls-30{fill:url(#linear-gradient-21);}.cls-31{fill:url(#linear-gradient-23);}.cls-32{fill:url(#linear-gradient-15);}.cls-33{fill:url(#linear-gradient-19);}.cls-34{fill:url(#linear-gradient-16);}.cls-35{fill:url(#linear-gradient-17);}.cls-36{fill:url(#linear-gradient-13);}.cls-37{fill:url(#linear-gradient-12);}.cls-38{fill:url(#linear-gradient-10);}.cls-39{fill:url(#linear-gradient-11);}.cls-40{fill:url(#linear-gradient-27);}.cls-41{fill:url(#linear-gradient-24);}.cls-42{fill:url(#linear-gradient-26);}.cls-43{fill:url(#linear-gradient-38);}.cls-44{fill:url(#linear-gradient-35);}.cls-45{fill:url(#linear-gradient-37);}.cls-46{fill:url(#linear-gradient-34);}.cls-47{fill:url(#linear-gradient-39);}.cls-48{fill:url(#linear-gradient-36);}.cls-49{fill:url(#linear-gradient-25);}.cls-50{fill:url(#linear-gradient-28);}.cls-51{fill:url(#linear-gradient-29);}.cls-52{fill:url(#linear-gradient-33);}.cls-53{fill:url(#linear-gradient-30);}.cls-54{fill:url(#linear-gradient-32);}.cls-55{fill:url(#linear-gradient-31);}.cls-56{isolation:isolate;}.cls-5{opacity:.58;}</style><linearGradient id="linear-gradient" x1="3040.75" y1="2837.41" x2="958.77" y2="1015.68" gradientUnits="userSpaceOnUse"><stop offset="0" stop-color="#dae3fe"/><stop offset="1" stop-color="#e9effd"/></linearGradient><linearGradient id="linear-gradient-2" x1="7884.9" y1="5881.71" x2="10223.18" y2="-2020.05" gradientTransform="translate(11278.29) rotate(-180) scale(1 -1)" gradientUnits="userSpaceOnUse"><stop offset="0" stop-color="#4f52ff"/><stop offset="1" stop-color="#4042e2"/></linearGradient><linearGradient id="linear-gradient-3" x1="9501.3" y1="4273.53" x2="11811.89" y2="-3534.65" xlink:href="#linear-gradient-2"/><linearGradient id="linear-gradient-4" x1="1141.73" y1="1474.93" x2="1174.3" y2="1463.64" gradientUnits="userSpaceOnUse"><stop offset="0" stop-color="#febbba"/><stop offset="1" stop-color="#ff928e"/></linearGradient><linearGradient id="linear-gradient-5" x1="1373.52" y1="1535.6" x2="1847.73" y2="1018.69" gradientUnits="userSpaceOnUse"><stop offset="0" stop-color="#09005d"/><stop offset="1" stop-color="#1a0f91"/></linearGradient><linearGradient id="linear-gradient-6" x1="1589.99" y1="1734.18" x2="2064.2" y2="1217.28" xlink:href="#linear-gradient-5"/><linearGradient id="linear-gradient-7" x1="544.05" y1="1174.84" x2="495.59" y2="1029.45" gradientTransform="translate(1290.1)" xlink:href="#linear-gradient-4"/><linearGradient id="linear-gradient-8" x1="1697.58" y1="926.3" x2="1871.76" y2="1002.03" xlink:href="#linear-gradient-4"/><linearGradient id="linear-gradient-9" x1="11875.98" y1="8283.26" x2="12084.06" y2="8283.26" gradientTransform="translate(15994.37 4000.22) rotate(-133.27) scale(1 -1)" xlink:href="#linear-gradient-5"/><linearGradient id="linear-gradient-10" x1="1686.73" y1="951.27" x2="1860.91" y2="1027" xlink:href="#linear-gradient-4"/><linearGradient id="linear-gradient-11" x1="10317.61" y1="2789.53" x2="10534.08" y2="2789.53" gradientTransform="translate(12345.96) rotate(-180) scale(1 -1)" xlink:href="#linear-gradient-2"/><linearGradient id="linear-gradient-12" x1="2550.86" y1="2587" x2="1767.03" y2="2810.41" xlink:href="#linear-gradient-5"/><linearGradient id="linear-gradient-13" x1="10337.59" y1="2687.87" x2="10398.57" y2="2687.87" gradientTransform="translate(12345.96) rotate(-180) scale(1 -1)" xlink:href="#linear-gradient-4"/><linearGradient id="linear-gradient-14" x1="9886.05" y1="2784.86" x2="9969" y2="2784.86" gradientTransform="translate(12345.96) rotate(-180) scale(1 -1)" xlink:href="#linear-gradient-2"/><linearGradient id="linear-gradient-15" x1="2113.88" y1="2541.59" x2="2602.36" y2="2859.67" xlink:href="#linear-gradient-5"/><linearGradient id="linear-gradient-16" x1="9949.94" y1="2637.04" x2="10022.81" y2="2637.04" gradientTransform="translate(12345.96) rotate(-180) scale(1 -1)" xlink:href="#linear-gradient-4"/><linearGradient id="linear-gradient-17" x1="7606.66" y1="2744.04" x2="8718.64" y2="1206.68" gradientTransform="translate(10012.96) rotate(-180) scale(1 -1)" xlink:href="#linear-gradient-5"/><linearGradient id="linear-gradient-18" x1="2025.41" y1="1727.86" x2="2052.38" y2="1923.39" gradientUnits="userSpaceOnUse"><stop offset="0" stop-color="#e1473d"/><stop offset="1" stop-color="#e9605a"/></linearGradient><linearGradient id="linear-gradient-19" x1="-365.48" y1="1909.56" x2="-368.49" y2="1836.68" gradientTransform="translate(2054.05 -129.62) rotate(-7.3)" xlink:href="#linear-gradient-18"/><linearGradient id="linear-gradient-20" x1="-369.29" y1="1800.14" x2="-354.26" y2="2009" gradientTransform="translate(2054.05 -129.62) rotate(-7.3)" xlink:href="#linear-gradient-18"/><linearGradient id="linear-gradient-21" x1="-162.46" y1="1901.2" x2="-165.46" y2="1828.32" gradientTransform="translate(2054.05 -129.62) rotate(-7.3)" xlink:href="#linear-gradient-18"/><linearGradient id="linear-gradient-22" x1="-166.81" y1="1785.59" x2="-151.78" y2="1994.44" gradientTransform="translate(2054.05 -129.62) rotate(-7.3)" xlink:href="#linear-gradient-18"/><linearGradient id="linear-gradient-23" x1="-250.2" y1="1683.89" x2="-270.49" y2="1832.62" gradientTransform="translate(2054.05 -129.62) rotate(-7.3)" gradientUnits="userSpaceOnUse"><stop offset="0" stop-color="#ff928e"/><stop offset="1" stop-color="#fe7062"/></linearGradient><linearGradient id="linear-gradient-24" x1="2046.23" y1="2115.29" x2="2043.98" y2="1856.84" gradientTransform="matrix(1,0,0,1,0,0)" xlink:href="#linear-gradient-23"/><linearGradient id="linear-gradient-25" x1="2041.78" y1="2025.27" x2="2066.5" y2="1910.66" xlink:href="#linear-gradient-18"/><linearGradient id="linear-gradient-26" x1="-301.5" y1="2067.53" x2="-216.3" y2="2067.53" xlink:href="#linear-gradient-23"/><linearGradient id="linear-gradient-27" x1="2109.49" y1="1527.01" x2="1944.48" y2="1844.35" xlink:href="#linear-gradient-4"/><linearGradient id="linear-gradient-28" x1="1660.57" y1="1798.93" x2="2134.77" y2="1282.02" xlink:href="#linear-gradient-5"/><linearGradient id="linear-gradient-29" x1="2005.19" y1="1295.91" x2="2115.31" y2="862.15" xlink:href="#linear-gradient-5"/><linearGradient id="linear-gradient-30" x1="-728" y1="2732.59" x2="-585.99" y2="2732.59" gradientTransform="translate(1290.1)" xlink:href="#linear-gradient-5"/><linearGradient id="linear-gradient-31" x1="-372.49" y1="2565.06" x2="-889.12" y2="2970.72" gradientTransform="translate(1290.1)" xlink:href="#linear-gradient-2"/><linearGradient id="linear-gradient-32" x1="-688.51" y1="2570.92" x2="-715.63" y2="2807.65" gradientTransform="translate(1290.1)" xlink:href="#linear-gradient-4"/><linearGradient id="linear-gradient-33" x1="-280.71" y1="2681.77" x2="-797.34" y2="3087.43" gradientTransform="translate(1290.1)" xlink:href="#linear-gradient-2"/><linearGradient id="linear-gradient-34" x1="-511.76" y1="2736.2" x2="-307.34" y2="2736.2" gradientTransform="translate(1290.1)" xlink:href="#linear-gradient-5"/><linearGradient id="linear-gradient-35" x1="-342.22" y1="2274.93" x2="-369.34" y2="2511.67" gradientTransform="translate(1017.3 304.02) rotate(-3.61)" xlink:href="#linear-gradient-4"/><linearGradient id="linear-gradient-36" x1="833.57" y1="1705.96" x2="380.63" y2="3139.5" xlink:href="#linear-gradient-5"/><linearGradient id="linear-gradient-37" x1="414.37" y1="1817.57" x2="929.03" y2="1186.04" gradientTransform="matrix(1,0,0,1,0,0)" xlink:href="#linear-gradient-23"/><linearGradient id="linear-gradient-38" x1="653.18" y1="1123.34" x2="841.96" y2="1010.97" xlink:href="#linear-gradient-4"/><linearGradient id="linear-gradient-39" x1="859.11" y1="1047.6" x2="748.93" y2="885.7" xlink:href="#linear-gradient-4"/><linearGradient id="linear-gradient-40" x1="654.94" y1="765.53" x2="810.71" y2="947.97" xlink:href="#linear-gradient-5"/><linearGradient id="linear-gradient-41" x1="805.66" y1="1083.98" x2="695.53" y2="922.16" xlink:href="#linear-gradient-4"/><linearGradient id="linear-gradient-42" x1="666.37" y1="1542.46" x2="904.6" y2="1216.59" gradientTransform="matrix(1,0,0,1,0,0)" xlink:href="#linear-gradient-23"/><linearGradient id="linear-gradient-43" x1="1292.1" y1="1160.97" x2="895.79" y2="1358.12" xlink:href="#linear-gradient-4"/><linearGradient id="linear-gradient-44" x1="1286.3" y1="1111.53" x2="1150.74" y2="1253.11" xlink:href="#linear-gradient-4"/><linearGradient id="linear-gradient-45" x1="1293.99" y1="1158.64" x2="897.67" y2="1355.78" xlink:href="#linear-gradient-4"/><linearGradient id="linear-gradient-46" x1="1459.6" y1="1493.14" x2="309.46" y2="1285.16" xlink:href="#linear-gradient-4"/><linearGradient id="linear-gradient-47" x1="896.08" y1="988.72" x2="393.12" y2="1759.63" xlink:href="#linear-gradient-18"/><linearGradient id="linear-gradient-48" x1="889.1" y1="984.17" x2="386.14" y2="1755.08" xlink:href="#linear-gradient-18"/></defs><g class="cls-56"><g id="Layer_2"><g id="Illustration"><path class="cls-1" d="m2686.93,1891.3c-269.08,633.57-985.83,988.49-1607.41,892.75-101.14-15.58-378.43-61.99-623.92-280.92C-17,2081.68-118.07,1247.13,263.16,659,540.63,230.95,1038.02-11.7,1510.64.43c101.8,2.61,491.95,18.73,834.83,301.45,50.36,41.53,161.44,140.21,261.55,296.75,235.07,367.6,255.27,879.76,79.91,1292.66Z"/><path class="cls-7" d="m130.98,81.27c-2.59-11.04,12.94-18.38,22.45-10.67,96.6,78.33,328.7,312.9,270.86,722.83-72.57,514.32,51.5,701.99,205.94,816.46,0,0-212.1-53.83-345.54-244.26C-42.94,898.08,177.11,277.63,130.98,81.27Z"/><path class="cls-4" d="m204.5,241.91c12.08,57.26,22.86,114.69,31.18,172.38,8.67,57.64,15.32,115.48,19.87,173.42,4.29,57.95,7.32,115.96,7.49,173.99.47,58.03-1.94,116.01-4.6,174.22-2.28,58.19-4.96,116.79-.7,175.82,4.19,58.9,16.59,118.32,41.19,174.02,6.15,13.88,12.62,27.72,19.97,41.09,7.06,13.5,14.82,26.72,22.85,39.83,16.21,26.14,34.46,51.4,54.8,75.38,40.82,47.87,90.05,90.33,144.28,126.27,5.71,3.78,13.89,2.85,18.27-2.08,4.3-4.84,3.34-11.74-2.1-15.57l-.04-.03c-12.9-9.06-25.67-18.24-37.92-27.88-6.22-4.74-12.17-9.7-18.24-14.57-5.84-5.06-11.92-9.92-17.57-15.13-23.03-20.5-44.36-42.37-63.72-65.49-38.93-46.03-70.1-97.32-93.71-150.5-11.46-26.71-20.63-54.1-27.32-82.01-6.67-27.91-10.86-56.31-13.18-84.94-4.64-57.29-2.55-115.31-.75-173.51,1.71-58.21,2.96-116.72,1.43-175.18-.68-29.23-1.96-58.44-3.85-87.62-.85-14.59-2.02-29.17-3.17-43.75-1.31-14.57-2.71-29.13-4.24-43.67-6.27-58.18-14.59-116.16-25.03-173.84-10.75-57.63-23.27-115-38.33-171.86-.43-1.63-2.3-2.64-4.19-2.27-1.83.36-2.99,1.91-2.66,3.48Z"/><path class="cls-6" d="m381.22,1312.33c-11.84,12.57-32.67,8.95-39.8-6.78-39.32-86.8-128.28-342.25,18.65-636.54,124.08-248.52,167.74-395.07,182.95-462.97,3.22-14.36,22.89-16.26,28.83-2.8,65.53,148.53,238.55,653.73-190.63,1109.09Z"/><path class="cls-4" d="m359.7,1303.17c-.42.08-.85.11-1.3.1-3.72-.06-6.69-3.12-6.64-6.84.06-4.22,8.28-426.1,165.19-779.45,1.51-3.4,5.49-4.93,8.9-3.43,3.4,1.51,4.94,5.5,3.43,8.9-155.77,350.77-163.97,769.99-164.03,774.18-.05,3.28-2.43,5.98-5.54,6.53Z"/><path class="cls-12" d="m2060.41,660.66c-37.56-65.98-66.47-154.71-7.44-221.13,106.63-119.95,319.88-146.61,373.19,39.99,22.05,77.19,6.48,137.18-19.37,181-23.94,40.58,5.57,91.73,52.69,91.73h339.87v453.47c0,40.95-46,64.38-79.64,41.04-228-158.25-346.89,28.41-347.14,112.42-.28,93.3,40.26,313.21,186.87,306.55,67-3.04,122.87-25.57,163.78-49.14,33.88-19.52,76.13,4.25,76.13,43.35v422.66h-351.73c-41.76,0-66.67,46.12-43.95,81.16,26.1,40.26,47.95,98.63,49.14,181.7,3.03,211.47-319.88,173.27-399.84,106.63-57.12-47.6-59.47-200.23-15-294.62,16.43-34.87-10.59-74.87-49.15-74.87h-342.36v-462.52c0-33.72-36.62-54.45-65.61-37.23-58.92,35.01-149.93,78.91-240.94,82.87-153.27,6.67-173.27-166.6-179.93-299.88-5.89-117.71,218.54-308.27,395.69-192.1,29.03,19.03,88.6,46.89,88.6,12.18v-433.67h363.32c47.05,0,76.09-50.71,52.81-91.6Z"/><path class="cls-2" d="m2248.77,2511.49c-17.9,0-36.44-1.18-55.39-3.57-61.01-7.7-116.47-27.1-144.72-50.65-61.64-51.37-60.75-209.37-16.78-302.67,6.61-14.02,5.53-29.73-2.95-43.1-8.8-13.87-23.79-22.16-40.1-22.16h-342.36c-3.72,0-6.74-3.02-6.74-6.74v-462.52c0-13.35-6.9-25.24-18.47-31.82-11.61-6.61-25.42-6.47-36.96.39-60.63,36.03-152.19,79.81-244.09,83.81-70.66,3.14-121.67-31.09-151.45-101.57-25.26-59.78-32.13-137.03-35.51-204.71-3.22-64.33,56.5-146.56,142-195.54,90.91-52.07,187.18-52.99,264.13-2.53,26.72,17.53,62.82,32.51,74.55,26.19.99-.53,3.61-1.95,3.61-8.37v-433.67c0-3.72,3.02-6.74,6.74-6.74h363.32c19.53,0,37.02-10.04,46.8-26.86,9.89-17.01,9.95-37.45.15-54.66-53.67-94.26-55.96-173.43-6.62-228.94,65.18-73.32,168.75-111.29,251.81-92.36,65.08,14.84,112.28,62.77,132.91,134.97,19.45,68.08,12.7,130.76-20.05,186.28-9.95,16.87-10.08,37.11-.35,54.14,9.81,17.17,27.47,27.42,47.24,27.42h339.86c3.72,0,6.74,3.02,6.74,6.74v453.47c0,21.59-11.39,40.43-30.46,50.42-19.08,9.98-41.98,8.51-59.77-3.84-113.14-78.53-192.16-66.18-238.54-42.01-66.66,34.75-97.89,109.4-98.01,148.91-.22,72.21,22.99,202.19,87.8,264.31,26.22,25.13,57.09,37.02,92.03,35.48,55.44-2.52,109.52-18.75,160.72-48.25,18.2-10.49,39.83-10.52,57.88-.09,17.76,10.26,28.36,28.69,28.36,49.29v422.66c0,3.72-3.02,6.74-6.74,6.74h-351.73c-17.05,0-32.07,8.91-40.18,23.83-8.14,14.99-7.44,32.53,1.89,46.93,32.28,49.79,49.18,112.13,50.23,185.27.93,65.28-28.83,114.22-86.08,141.54-33.98,16.21-77.06,24.59-124.72,24.59Zm-595.56-435.63h335.62c20.95,0,40.2,10.62,51.49,28.42,10.84,17.09,12.25,38.05,3.76,56.07-45.31,96.16-38.52,243.45,13.21,286.57,53.02,44.18,213.16,74.22,310.39,27.82,52.89-25.24,79.27-68.7,78.4-129.18-1.01-70.57-17.18-130.5-48.06-178.13-12.06-18.6-12.97-41.3-2.43-60.7,10.51-19.33,29.95-30.87,52.03-30.87h344.98v-415.92c0-15.73-8.08-29.79-21.62-37.61-13.82-7.99-30.41-7.95-44.4.1-53.09,30.58-109.22,47.42-166.84,50.03-38.63,1.78-72.98-11.44-101.97-39.22-67.87-65.05-92.18-199.55-91.95-274.08.13-44.06,32.88-123.1,105.26-160.83,49.67-25.9,133.79-39.47,252.47,42.89,13.86,9.62,30.99,10.72,45.83,2.97,14.54-7.61,23.23-21.99,23.23-38.47v-446.72h-333.12c-24.67,0-46.71-12.79-58.95-34.22-12.16-21.29-11.99-46.59.45-67.68,30.8-52.22,37.09-111.34,18.7-175.72-24.63-86.2-80.45-115.84-122.94-125.53-78.5-17.92-176.68,18.35-238.73,88.17-31.48,35.41-55.59,101.16,8.26,213.31h0c12.2,21.43,12.12,46.9-.21,68.11-12.22,21.02-34.07,33.56-58.46,33.56h-356.58v426.92c0,11.96-5.81,17.6-10.68,20.24-25.75,13.91-85.81-25.11-88.36-26.77-72.55-47.59-163.68-46.51-250.03,2.96-80.02,45.84-138.16,124.58-135.23,183.16,3.33,66.5,10.02,142.29,34.47,200.14,27.74,65.65,72.98,96.19,138.44,93.35,89.09-3.87,178.49-46.69,237.79-81.93,15.76-9.36,34.64-9.55,50.52-.52,15.83,9.01,25.28,25.28,25.28,43.54v455.77Z"/><path class="cls-10" d="m350.21,1597.55c-39.98,26.83-92.75,52.93-152.23,58.88-131.7,13.17-184.38-131.7-190.97-256.82-6.58-125.12,105.36-243.65,204.14-230.48,46.52,6.2,97.43,35.78,138.27,65.33,32.98,23.87,79.04.4,79.04-40.32v-449.39h454.64c37.89,0,63-39.13,47.17-73.55-35.67-77.53-75.74-195.34-19.86-246.19,86.84-79.02,321.44-79.02,360.95,39.51,22.12,66.37-7.93,146.22-38.67,203.65-18.53,34.62,6.48,76.4,45.74,76.4h388.03v416.19c0,44.4-50.21,71.99-86.42,46.29-167.85-119.13-351.16,6.53-367.96,146.47-19.76,164.63,85.61,302.91,197.56,289.75,56.85-6.69,122.18-38.85,172.73-68.88,37.12-22.06,84.1,4.43,84.1,47.62v459.69h-446.93c-51.14,0-85.34-53.34-63.18-99.43,26.42-54.92,134.67-122.34,128.17-174.37-13.17-105.36-247.76-131.43-374.12-111.81-96.44,14.97-48.5,165.83,6.31,286.73,21.01,46.34-12.45,98.88-63.33,98.88h-424.93v-443.21c0-40.23-44.84-63.35-78.25-40.93Z"/><path class="cls-2" d="m1666.47,2088.43h-446.93c-26.56,0-50.87-13.44-65.03-35.96-13.98-22.24-15.56-49.58-4.23-73.13,11.35-23.6,36.95-49.2,61.7-73.95,34.06-34.06,69.28-69.28,65.86-96.66-2.53-20.27-14.4-38.52-35.26-54.26-47.54-35.86-189.06-73.78-331.14-51.73-19.19,2.98-32.42,11.65-40.46,26.52-21.99,40.68-4.05,127.39,51.88,250.76,10.87,23.97,8.88,51.44-5.32,73.48-14.1,21.87-38.07,34.93-64.14,34.93h-424.94c-3.72,0-6.74-3.02-6.74-6.74v-443.2c0-16.11-8.44-30.23-22.57-37.77-14.5-7.73-31.39-6.82-45.18,2.44-51.65,34.66-103.91,54.85-155.32,59.99-42.48,4.25-79.63-7.03-110.48-33.5-23.87-20.49-80.22-83.88-87.9-229.67-3.53-67.04,27-138.89,79.66-187.5,40.68-37.55,88.85-55.77,132.1-50.01,40.15,5.35,87.7,27.74,141.33,66.55,13.41,9.7,30.19,11.02,44.89,3.51,14.68-7.5,23.45-21.84,23.45-38.36v-449.39c0-3.72,3.02-6.74,6.74-6.74h454.64c15.5,0,29.73-7.77,38.07-20.78,8.33-13,9.44-29.15,2.97-43.21-40.04-87.02-75.71-201.73-18.27-253.99,55.04-50.09,169.15-70.8,259.77-47.13,58.12,15.17,97.93,46.96,112.11,89.49,23.06,69.2-8.54,151.83-39.12,208.96-7.58,14.16-7.19,30.81,1.04,44.55,8.22,13.73,22.72,21.93,38.76,21.93h388.03c3.72,0,6.74,3.02,6.74,6.74v416.19c0,23.59-13.12,45.02-34.24,55.93-20.66,10.67-44.15,9.13-62.82-4.13-71.13-50.48-151.08-60.21-225.14-27.39-71.81,31.81-123.71,98.22-132.23,169.17-10.78,89.79,16.85,179.97,72.09,235.34,35,35.08,76.87,51.75,117.98,46.91,57.37-6.75,124.15-40.7,170.07-67.99,19.6-11.65,43.12-11.89,62.88-.65,19.66,11.19,31.4,31.4,31.4,54.06v459.69c0,3.72-3.02,6.74-6.74,6.74Zm-669.6-405.01c88.42,0,195.14,16.01,253.83,60.28,23.88,18.01,37.52,39.33,40.52,63.35,4.24,33.92-33.35,71.51-69.7,107.86-23.95,23.96-48.73,48.73-59.08,70.27-9.31,19.35-8,41.82,3.49,60.11,11.67,18.57,31.71,29.66,53.61,29.66h440.19v-452.95c0-17.75-9.19-33.58-24.59-42.34-15.5-8.82-33.93-8.63-49.33.52-47.04,27.95-115.66,62.75-175.38,69.78-45.23,5.33-91.13-12.71-129.1-50.78-58.09-58.23-87.19-152.67-75.93-246.47,9.07-75.58,64.08-146.19,140.15-179.89,78.58-34.81,163.25-24.61,238.4,28.73,14.5,10.28,32.75,11.46,48.83,3.15,16.62-8.59,26.94-25.42,26.94-43.95v-409.44h-381.29c-20.83,0-39.64-10.65-50.33-28.49-10.69-17.85-11.2-39.47-1.37-57.84,29.33-54.79,59.77-133.68,38.22-198.33-12.69-38.07-49.17-66.73-102.72-80.71-86.67-22.62-195.28-3.27-247.29,44.06-23.23,21.14-51.33,80.21,21.45,238.38,8.39,18.25,6.95,39.24-3.87,56.12-10.83,16.9-29.31,27-49.42,27h-447.9v442.65c0,21.37-11.8,40.67-30.8,50.37-19.02,9.72-41.6,7.96-58.93-4.59-51.07-36.96-97.83-59.13-135.21-64.11-39.27-5.25-83.45,11.73-121.17,46.55-49.8,45.97-78.67,113.75-75.35,176.89,5.14,97.54,36.24,179.84,83.21,220.15,27.94,23.98,61.71,34.2,100.35,30.32,49.18-4.92,99.36-24.35,149.15-57.77h0c17.74-11.9,40.36-13.1,59.04-3.14,18.6,9.92,29.71,28.49,29.71,49.67v436.46h418.19c21.46,0,41.21-10.75,52.81-28.75,11.71-18.17,13.35-40.82,4.38-60.6-58.56-129.17-75.88-217.57-51.46-262.74,10.03-18.57,26.94-29.81,50.25-33.43,24.38-3.79,54.68-5.99,87.5-5.99Z"/><g class="cls-16"><path class="cls-6" d="m2127.3,460.5c-4.19.78-8.37-1.71-9.61-5.88-2.71-9.12-5.07-18.5-7.01-27.86-.94-4.56,1.99-9.02,6.54-9.96.06-.01.11-.02.16-.03,4.5-.84,8.86,2.07,9.79,6.57,1.84,8.9,4.08,17.8,6.66,26.47,1.33,4.46-1.21,9.15-5.67,10.48-.29.09-.58.15-.86.21Zm-12.95-72.24c-.32.06-.66.1-.99.13-4.64.31-8.66-3.2-8.97-7.84-.64-9.54-.88-19.19-.71-28.7.08-4.65,3.9-8.34,8.57-8.27,4.65.08,8.35,3.92,8.27,8.57-.16,9.04.07,18.21.68,27.27.29,4.3-2.71,8.07-6.85,8.84Zm3.27-73.29c-.92.17-1.89.19-2.87.04-4.59-.73-7.73-5.05-7-9.64,1.49-9.42,3.42-18.89,5.72-28.15,1.12-4.52,5.69-7.26,10.21-6.15,4.51,1.12,7.27,5.69,6.15,10.21-2.18,8.79-4.01,17.79-5.43,26.73-.57,3.62-3.37,6.33-6.77,6.96Zm19.59-70.74c-1.52.28-3.14.15-4.69-.47-4.32-1.74-6.4-6.65-4.67-10.96,3.57-8.85,7.56-17.66,11.86-26.17,2.1-4.15,7.17-5.81,11.32-3.71,4.15,2.1,5.81,7.17,3.71,11.32-4.09,8.08-7.88,16.44-11.27,24.86-1.12,2.77-3.54,4.62-6.27,5.13Zm34.87-64.59c-2.14.4-4.43-.02-6.35-1.36-3.82-2.65-4.77-7.9-2.12-11.72,5.43-7.82,11.27-15.52,17.36-22.88,2.96-3.59,8.27-4.09,11.86-1.12,3.58,2.97,4.09,8.28,1.12,11.86-5.79,6.99-11.34,14.31-16.5,21.74-1.32,1.9-3.27,3.09-5.37,3.48Zm48.28-55.27c-2.77.52-5.73-.36-7.77-2.59-3.14-3.43-2.9-8.76.53-11.9,7.03-6.44,14.43-12.65,21.99-18.47,3.69-2.84,8.98-2.15,11.82,1.54,2.84,3.68,2.15,8.97-1.54,11.81-7.18,5.53-14.21,11.43-20.89,17.55-1.2,1.1-2.64,1.79-4.13,2.06Zm299.75-76.45c-1.15.21-2.35.19-3.56-.1-8.79-2.17-17.79-3.98-26.75-5.38-4.6-.72-7.74-5.03-7.02-9.62.72-4.6,5.03-7.74,9.63-7.02,9.44,1.48,18.92,3.39,28.17,5.67,4.52,1.11,7.28,5.68,6.16,10.2-.82,3.31-3.49,5.68-6.64,6.27Zm-240.46,33.28c-3.44.64-7.05-.91-8.87-4.12-2.3-4.05-.88-9.19,3.16-11.49,8.29-4.71,16.89-9.12,25.55-13.11,4.24-1.92,9.23-.1,11.17,4.13,1.94,4.23.09,9.23-4.14,11.17-8.23,3.78-16.39,7.97-24.26,12.44-.84.47-1.72.79-2.61.96Zm167.68-42.7c-.55.1-1.11.15-1.69.15-9.06-.14-18.24.1-27.29.73-4.64.32-8.66-3.18-8.99-7.82-.32-4.64,3.18-8.69,7.82-8.98,9.53-.66,19.19-.92,28.72-.77,4.65.07,8.36,3.91,8.29,8.56-.06,4.07-3.01,7.43-6.87,8.15Zm-100.23,13.87c-4.18.78-8.36-1.7-9.61-5.86-1.34-4.46,1.19-9.15,5.65-10.49,9.13-2.73,18.49-5.11,27.84-7.06.06-.01.12-.03.18-.04,4.49-.84,8.85,2.06,9.79,6.56.95,4.56-1.97,9.02-6.53,9.97-8.88,1.85-17.77,4.11-26.44,6.71-.29.08-.59.16-.88.21Z"/><path class="cls-6" d="m2576.03,67.22c-1.63.3-3.37.13-5-.6-3.96-1.78-8.02-3.51-12.08-5.14-4.32-1.73-6.41-6.64-4.67-10.96,1.73-4.32,6.64-6.42,10.96-4.67,4.27,1.71,8.54,3.53,12.71,5.41,4.24,1.91,6.14,6.9,4.23,11.14-1.18,2.62-3.52,4.34-6.14,4.83Z"/></g><g class="cls-16"><path class="cls-6" d="m2750.5,255.71c-4,.75-8.06-1.49-9.47-5.44-1.46-4.09-3.04-8.22-4.68-12.27-1.75-4.31.33-9.23,4.64-10.97,4.33-1.75,9.23.33,10.97,4.64,1.73,4.26,3.38,8.61,4.93,12.92,1.57,4.38-.71,9.2-5.09,10.77-.43.15-.87.27-1.3.35Z"/><path class="cls-6" d="m2502.29,688.96c-3.81.71-7.65,1.36-11.51,1.95-4.6.7-8.9-2.46-9.6-7.06-.7-4.6,2.48-8.92,7.06-9.6,8.91-1.36,17.75-3.07,26.37-5.13,4.53-1.07,9.07,1.72,10.15,6.24,1.08,4.53-1.72,9.07-6.24,10.15-5.33,1.27-10.79,2.43-16.23,3.45Zm-55.83,5.63c-.46.09-.94.14-1.43.14-9.4.15-18.91-.1-28.26-.75-4.64-.32-8.15-4.34-7.83-8.98.32-4.64,4.35-8.16,8.98-7.83,8.88.61,17.92.84,26.85.71,4.65-.07,8.48,3.64,8.55,8.29.06,4.17-2.9,7.67-6.87,8.41Zm114.37-22.31c-3.9.73-7.9-1.39-9.39-5.23-1.69-4.34.46-9.22,4.8-10.91,8.3-3.22,16.56-6.85,24.58-10.78,4.18-2.04,9.23-.32,11.27,3.86,2.05,4.18.32,9.23-3.86,11.27-8.44,4.14-17.15,7.95-25.89,11.35-.5.19-1.01.34-1.51.43Zm-186.28,15.47c-1.05.2-2.16.19-3.27-.04-9.19-1.92-18.41-4.26-27.41-6.94-4.46-1.33-6.99-6.02-5.66-10.48,1.33-4.46,6.02-6.99,10.48-5.66,8.54,2.55,17.29,4.77,26.02,6.59,4.55.95,7.47,5.42,6.52,9.97-.72,3.44-3.44,5.95-6.7,6.56Zm250.24-48.92c-3.2.6-6.6-.7-8.54-3.58-2.6-3.86-1.58-9.09,2.28-11.69,7.38-4.97,14.65-10.32,21.61-15.92,3.63-2.91,8.93-2.34,11.84,1.29,2.91,3.63,2.34,8.93-1.29,11.84-7.33,5.89-14.98,11.53-22.75,16.76-.98.66-2.06,1.09-3.15,1.3Zm55.07-46.68c-2.56.48-5.31-.23-7.34-2.16-3.38-3.2-3.53-8.53-.33-11.91,6.13-6.48,12.06-13.3,17.62-20.26,2.9-3.64,8.2-4.23,11.84-1.32,3.63,2.91,4.23,8.21,1.32,11.84-5.85,7.32-12.09,14.5-18.55,21.32-1.27,1.34-2.88,2.17-4.56,2.49Zm43.58-57.57c-1.95.36-4.03.05-5.86-1.05-3.99-2.38-5.3-7.56-2.91-11.55,4.58-7.67,8.88-15.61,12.79-23.61,2.04-4.18,7.08-5.91,11.27-3.87,4.18,2.04,5.91,7.09,3.87,11.27-4.12,8.42-8.65,16.78-13.46,24.85-1.29,2.16-3.4,3.53-5.69,3.96Zm29.99-65.7c-1.35.25-2.78.18-4.17-.28-4.42-1.45-6.82-6.21-5.37-10.63,2.79-8.48,5.25-17.17,7.31-25.84,1.08-4.53,5.62-7.32,10.14-6.25,4.53,1.07,7.33,5.62,6.25,10.14-2.17,9.13-4.76,18.28-7.69,27.21-1,3.03-3.54,5.1-6.46,5.65Zm14.84-70.71c-.76.14-1.55.18-2.36.1-4.63-.44-8.03-4.56-7.58-9.19.85-8.86,1.33-17.88,1.43-26.8.05-4.65,3.88-8.38,8.52-8.33,4.65.05,8.38,3.87,8.33,8.52-.11,9.39-.61,18.89-1.51,28.22-.37,3.82-3.24,6.81-6.83,7.48Zm-1.06-72.19c-.17.03-.34.06-.52.08-4.62.57-8.83-2.7-9.4-7.32-.81-6.52-1.83-13.08-3.04-19.53-.44-2.33-.9-4.66-1.38-6.97-.95-4.56,1.96-9.02,6.52-9.97,4.59-1.06,9.02,1.96,9.97,6.51.51,2.43.99,4.87,1.45,7.33,1.27,6.78,2.34,13.69,3.2,20.54.55,4.44-2.46,8.51-6.8,9.32Z"/><path class="cls-6" d="m2305.72,665.15c-1.65.31-3.4.13-5.04-.62-4.15-1.89-8.34-3.91-12.45-5.99-4.15-2.1-5.81-7.17-3.71-11.32,2.1-4.15,7.17-5.81,11.32-3.71,3.9,1.98,7.88,3.89,11.82,5.69,4.23,1.93,6.1,6.92,4.17,11.16-1.18,2.59-3.52,4.3-6.12,4.79Z"/></g><path class="cls-6" d="m2298.94,567.01c1.28,1.08,3.11,1.23,4.56.38l41.17-24.52c19.94,10.16,41.64,17.22,64.43,20.58l19.35,43.81c.68,1.54,2.26,2.47,3.93,2.33l57.28-4.82c1.67-.14,3.07-1.33,3.49-2.96l11.76-46.42c21.91-7.11,42.12-17.7,60.09-31.05l44.69,17.31c1.57.61,3.34.15,4.43-1.13l37.1-43.91c1.08-1.28,1.24-3.11.38-4.56l-24.52-41.17c10.16-19.94,17.22-41.64,20.58-64.43l43.81-19.35c1.54-.68,2.47-2.26,2.33-3.93l-4.82-57.28c-.14-1.67-1.33-3.07-2.96-3.49l-46.42-11.76c-7.11-21.91-17.69-42.12-31.05-60.08l17.31-44.69c.61-1.57.15-3.34-1.13-4.43l-43.91-37.1c-1.28-1.09-3.11-1.23-4.56-.38l-41.17,24.52c-19.94-10.17-41.64-17.22-64.43-20.58l-19.35-43.81c-.68-1.54-2.26-2.47-3.93-2.33l-57.28,4.82c-1.67.14-3.07,1.33-3.49,2.96l-11.76,46.42c-21.91,7.11-42.12,17.69-60.09,31.05l-44.69-17.31c-1.57-.61-3.35-.15-4.43,1.13l-37.1,43.91c-1.08,1.28-1.23,3.11-.38,4.56l24.52,41.17c-10.16,19.94-17.22,41.64-20.58,64.43l-43.81,19.35c-1.54.68-2.47,2.26-2.33,3.93l4.82,57.28c.14,1.67,1.33,3.07,2.96,3.49l46.42,11.76c7.11,21.9,17.7,42.12,31.05,60.08l-17.3,44.69c-.61,1.57-.15,3.34,1.13,4.43l43.91,37.1Z"/><path class="cls-7" d="m2450.45,412.49c-27.69,5.18-55.8-10.61-65.22-38.02-10.36-30.13,5.73-63.07,35.85-73.43,14.6-5.02,30.27-4.05,44.14,2.72,13.87,6.77,24.27,18.54,29.29,33.13,10.36,30.13-5.73,63.07-35.85,73.43-2.72.93-5.46,1.65-8.2,2.17Zm-18.63-100.38c-2.14.4-4.26.96-6.35,1.68-23.1,7.94-35.43,33.2-27.49,56.3,7.94,23.1,33.19,35.44,56.3,27.49,23.1-7.94,35.43-33.2,27.49-56.3-3.85-11.19-11.82-20.21-22.46-25.41-8.64-4.22-18.2-5.5-27.49-3.76Z"/><path class="cls-7" d="m2466.94,494.3c-4.75.89-9.58,1.54-14.47,1.96h0c-1.54.13-3.08.23-4.62.31-7.6.39-15.22.18-22.74-.63-.1-.01-.21-.02-.31-.03-.29-.03-.58-.07-.87-.1-.57-.06-1.13-.14-1.7-.21-1.49-.19-2.62-1.32-2.88-2.72-.06-.34-.07-.7-.03-1.06.24-1.85,1.93-3.14,3.77-2.91,9.5,1.23,19.19,1.44,28.81.63,47.79-4.01,87.74-32.53,108.54-72.13,11.57-22.03,17.21-47.48,14.98-74.06-.39-4.66-1.01-9.27-1.86-13.8-5.71-30.52-21.61-57.92-45.65-78.23-27.61-23.33-62.66-34.51-98.68-31.48-74.39,6.26-129.77,71.84-123.52,146.19.39,4.58,1,9.13,1.84,13.63,3.64,19.47,11.51,37.92,23.09,54.01.3.42.49.88.58,1.35.23,1.24-.25,2.57-1.34,3.35-1.51,1.08-3.62.75-4.7-.77-12.16-16.89-20.42-36.27-24.24-56.71-.88-4.72-1.53-9.49-1.94-14.3-6.56-78.07,51.63-146.91,129.67-153.47,37.82-3.18,74.6,8.56,103.59,33.05,25.24,21.32,41.93,50.09,47.92,82.13.89,4.76,1.54,9.6,1.96,14.49,3.18,37.82-8.56,74.61-33.05,103.59-21.33,25.24-50.1,41.93-82.15,47.93Z"/><g class="cls-16"><path class="cls-6" d="m1885.51,731.55c-2.21.41-4.52-.65-5.59-2.76-2-3.94-3.91-7.99-5.68-12.04-1.15-2.63.06-5.7,2.7-6.85,2.63-1.16,5.7.06,6.85,2.7,1.68,3.86,3.5,7.72,5.41,11.48,1.3,2.56.28,5.69-2.28,7-.46.23-.93.39-1.41.47Z"/><path class="cls-6" d="m1870.73,694.36c-2.59.48-5.18-1.06-5.94-3.64-2.15-7.3-3.95-14.79-5.35-22.26-.29-1.57-.57-3.15-.84-4.74-.47-2.84,1.62-5.44,4.29-5.99,2.84-.47,5.51,1.45,5.98,4.28.25,1.52.51,3.03.8,4.53,1.33,7.13,3.05,14.27,5.1,21.23.81,2.76-.76,5.65-3.52,6.46-.17.05-.35.09-.52.12Zm-8.8-53.3c-.24.05-.49.08-.74.09-2.87.12-5.3-2.11-5.42-4.98-.39-9.21-.21-18.53.54-27.69.23-2.87,2.76-4.99,5.61-4.76,2.87.23,5,2.74,4.76,5.61-.71,8.74-.88,17.63-.51,26.41.11,2.62-1.73,4.86-4.23,5.33Zm4.39-53.85c-.65.12-1.33.12-2.02-.02-2.81-.59-4.62-3.35-4.03-6.16,1.88-9.01,4.35-18.01,7.33-26.73.93-2.72,3.88-4.17,6.61-3.24,2.72.93,4.17,3.89,3.24,6.61-2.85,8.32-5.2,16.89-6.99,25.48-.45,2.13-2.13,3.68-4.14,4.05Zm17.49-51.12c-1.06.2-2.19.07-3.23-.44-2.58-1.26-3.66-4.38-2.4-6.96,4.04-8.29,8.63-16.4,13.64-24.11,1.57-2.41,4.79-3.08,7.2-1.52,2.41,1.57,3.09,4.79,1.52,7.2-4.78,7.35-9.16,15.09-13.01,22.99-.75,1.54-2.16,2.54-3.73,2.84Zm29.44-45.3c-1.48.28-3.07-.09-4.31-1.13-2.2-1.85-2.48-5.13-.63-7.33,5.93-7.05,12.35-13.8,19.08-20.06,2.1-1.96,5.4-1.84,7.35.26,1.96,2.1,1.84,5.4-.26,7.35-6.42,5.98-12.55,12.42-18.2,19.14-.81.96-1.88,1.55-3.02,1.76Zm39.54-36.77c-1.92.36-3.96-.38-5.18-2.07-1.68-2.33-1.16-5.58,1.17-7.26,7.46-5.4,15.34-10.38,23.39-14.8,2.53-1.38,5.68-.46,7.07,2.06,1.38,2.52.46,5.68-2.06,7.06-7.69,4.22-15.19,8.97-22.3,14.11-.64.47-1.36.76-2.09.9Zm47.32-25.98c-2.4.45-4.85-.84-5.79-3.19-1.06-2.67.25-5.7,2.92-6.76,8.53-3.39,17.39-6.28,26.32-8.61,2.8-.68,5.63.95,6.35,3.73.72,2.78-.94,5.62-3.72,6.35-8.53,2.21-16.97,4.98-25.11,8.21-.32.13-.64.22-.97.28Zm79.29-15.49c-.29.06-.6.09-.91.09-7.59.07-15.3.55-22.93,1.44-1.16.13-2.29.27-3.42.42-2.85.38-5.47-1.62-5.85-4.47-.39-2.85,1.62-5.56,4.47-5.85,1.21-.16,2.41-.31,3.62-.45,7.97-.93,16.06-1.44,24.02-1.51,2.87-.03,5.22,2.28,5.25,5.15.02,2.56-1.81,4.71-4.24,5.16Z"/></g><g class="cls-16"><path class="cls-6" d="m2124.61,847.27c-2.79.52-5.49-1.3-6.06-4.09-.57-2.82,1.26-5.56,4.08-6.12,8.48-1.7,16.93-3.93,25.12-6.63,2.72-.87,5.67.58,6.57,3.31.9,2.73-.58,5.67-3.31,6.57-8.58,2.83-17.44,5.17-26.33,6.95-.02,0-.05,0-.07.01Zm-26.37,3.65c-.19.03-.37.06-.56.07-9.03.71-18.2.87-27.24.49-2.87-.12-5.1-2.55-4.98-5.42.12-2.88,2.56-5.1,5.42-4.98,8.63.37,17.38.21,25.99-.46,2.86-.23,5.37,1.92,5.59,4.78.21,2.68-1.65,5.04-4.22,5.52Zm76.81-20.32c-2.27.42-4.62-.71-5.66-2.89-1.23-2.59-.12-5.7,2.48-6.92,7.82-3.71,15.49-7.91,22.78-12.52,2.44-1.53,5.64-.81,7.18,1.63,1.53,2.43.81,5.64-1.62,7.18-7.64,4.83-15.68,9.24-23.88,13.12-.42.2-.84.33-1.27.41Zm-129.92,18.04c-.58.11-1.19.12-1.81.02-8.94-1.49-17.88-3.54-26.57-6.11-2.76-.81-4.33-3.71-3.52-6.47.81-2.75,3.71-4.32,6.46-3.51,8.28,2.45,16.8,4.4,25.33,5.82,2.83.47,4.75,3.15,4.28,5.99-.37,2.21-2.09,3.87-4.18,4.26Zm174.84-46.41c-1.81.34-3.75-.3-4.99-1.82-1.82-2.23-1.49-5.51.74-7.32,6.69-5.46,13.11-11.38,19.09-17.62,1.99-2.08,5.29-2.14,7.36-.15,2.07,1.99,2.14,5.29.15,7.36-6.27,6.53-13.01,12.75-20.02,18.48-.7.57-1.5.93-2.33,1.08Zm36.8-38.31c-1.39.26-2.87-.04-4.08-.95-2.3-1.73-2.76-4.99-1.04-7.29,5.2-6.92,10.02-14.22,14.34-21.68,1.44-2.49,4.62-3.34,7.11-1.9,2.49,1.44,3.34,4.62,1.9,7.1-4.52,7.83-9.58,15.48-15.02,22.73-.81,1.08-1.97,1.76-3.2,1.99Zm26.57-46.03c-.97.18-2.01.09-2.99-.33-2.64-1.12-3.88-4.18-2.75-6.83,3.39-7.96,6.33-16.2,8.71-24.49.8-2.75,3.68-4.35,6.44-3.56,2.76.8,4.35,3.68,3.56,6.44-2.51,8.69-5.58,17.33-9.13,25.68-.71,1.66-2.18,2.77-3.84,3.07Z"/><path class="cls-6" d="m1993.93,833.5c-.99.18-2.04.09-3.03-.34-4.08-1.77-8.13-3.68-12.04-5.66-2.56-1.3-3.59-4.43-2.29-7,1.3-2.55,4.43-3.58,7-2.29,3.72,1.89,7.59,3.7,11.48,5.4,2.64,1.15,3.84,4.21,2.7,6.85-.72,1.64-2.18,2.73-3.82,3.04Z"/></g><path class="cls-6" d="m1985.82,766.63c.86.73,2.08.83,3.05.25l27.55-16.41c13.34,6.8,27.86,11.52,43.11,13.77l12.95,29.31c.45,1.03,1.51,1.66,2.63,1.56l38.33-3.22c1.12-.09,2.06-.89,2.33-1.98l7.87-31.06c14.66-4.76,28.19-11.84,40.21-20.77l29.9,11.58c1.05.41,2.24.1,2.96-.76l24.82-29.38c.73-.86.83-2.08.25-3.05l-16.41-27.55c6.8-13.34,11.52-27.86,13.77-43.11l29.31-12.95c1.03-.45,1.66-1.51,1.56-2.63l-3.22-38.33c-.09-1.12-.89-2.06-1.98-2.33l-31.06-7.87c-4.76-14.66-11.84-28.19-20.77-40.21l11.58-29.9c.41-1.05.1-2.24-.76-2.96l-29.38-24.82c-.86-.73-2.08-.83-3.05-.25l-27.55,16.41c-13.34-6.8-27.86-11.52-43.11-13.77l-12.95-29.31c-.45-1.03-1.51-1.66-2.63-1.56l-38.33,3.22c-1.12.09-2.06.89-2.33,1.98l-7.87,31.06c-14.66,4.76-28.19,11.84-40.21,20.77l-29.9-11.58c-1.05-.41-2.24-.1-2.96.76l-24.82,29.38c-.72.86-.83,2.08-.25,3.05l16.41,27.55c-6.8,13.34-11.52,27.86-13.77,43.11l-29.31,12.95c-1.03.45-1.65,1.51-1.56,2.63l3.22,38.33c.09,1.12.89,2.06,1.98,2.33l31.06,7.87c4.76,14.66,11.84,28.19,20.77,40.21l-11.58,29.9c-.41,1.05-.1,2.24.76,2.96l29.38,24.82Z"/><path class="cls-7" d="m2087.28,663.93c-8.25,1.54-16.74.41-24.42-3.34-9.45-4.61-16.53-12.63-19.95-22.57-7.06-20.52,3.9-42.95,24.42-50.01,20.56-7.03,42.96,3.9,50.02,24.42,3.42,9.94,2.76,20.62-1.85,30.06-4.61,9.45-12.63,16.53-22.57,19.95-1.86.64-3.74,1.13-5.64,1.49Zm-12.46-67.17c-1.38.26-2.75.62-4.11,1.08-15.09,5.19-23.15,21.7-17.96,36.79,2.51,7.31,7.72,13.21,14.67,16.6,6.95,3.39,14.8,3.87,22.12,1.36h0c7.31-2.51,13.21-7.73,16.6-14.67,3.39-6.95,3.88-14.81,1.36-22.12-4.72-13.73-18.81-21.64-32.68-19.05Z"/><path class="cls-7" d="m2098.69,720.89c-3.24.61-6.53,1.05-9.88,1.33-6.65.56-13.36.45-19.97-.35-.3-.04-.59-.08-.89-.11-2.29-.29-4.04-2.04-4.45-4.2-.1-.52-.12-1.07-.04-1.63.37-2.85,2.98-4.85,5.83-4.49,6.16.8,12.44.93,18.65.41h0c.34-.03.68-.06,1.02-.09,14.69-1.38,28.49-6.37,40.42-14.39,6.48-4.35,12.41-9.61,17.63-15.68.04-.05.08-.1.13-.15.13-.15.26-.3.39-.45,15.1-17.88,22.34-40.56,20.38-63.88-.25-3.02-.66-6-1.21-8.93-3.7-19.76-13.99-37.5-29.55-50.65-17.88-15.1-40.56-22.34-63.88-20.38-23.3,1.97-44.48,12.89-59.58,30.76-15.1,17.88-22.34,40.56-20.38,63.88.25,2.97.65,5.91,1.19,8.82,2.36,12.61,7.45,24.55,14.95,34.97.46.64.76,1.35.89,2.08.36,1.92-.38,3.96-2.07,5.18-2.34,1.67-5.58,1.15-7.26-1.19-8.39-11.65-14.09-25.02-16.73-39.12-.61-3.26-1.06-6.55-1.34-9.87-2.19-26.09,5.91-51.47,22.8-71.47,16.9-20,40.55-32.23,66.66-34.41,26.09-2.2,51.47,5.9,71.47,22.8,17.41,14.71,28.93,34.55,33.06,56.66.61,3.28,1.07,6.62,1.35,9.99,4.24,50.51-30.79,95.43-79.58,104.55Z"/><path class="cls-11" d="m1236.23,1416.75s-15.66-41.23-33.96-37.46c-18.3,3.78-38.31,17.83-38.31,17.83l-29.39,39.75s82.51,32.5,111.52,13.88c0,0,84.27,14.56,190.7-2.9-15.41-32.53-24.59-65.09-29.98-90.36-53.9,30.51-111.96,53.3-170.58,59.26Z"/><path class="cls-15" d="m1682.63,1117.68s-120.66,151.97-275.83,239.8c5.39,25.28,14.57,57.84,29.98,90.36,80.49-13.21,173.65-44.73,252.63-114.77l-6.78-215.39Z"/><path class="cls-13" d="m1833.11,1791.26c-23.6-112.08-47.19-176.97-126.2-389.42-24.86-66.86-47.44-134.5-36.53-204.99l12.26-79.17s153.55-51.96,323.75-2.19c0,0,232.21,100.88,74.49,599.08-71.09,79.54-154.3,102.21-247.76,76.69Z"/><path class="cls-14" d="m1708.77,1016.64l39.81,95.65c2.52,6.04,7.95,10.35,14.4,11.45,22.95,3.94,78.47,10.09,114.94-13.89,4.34-2.86,5.45-8.76,2.48-13.03l-73.56-105.61-98.07,25.42Z"/><path class="cls-8" d="m1749.95,870.3c-1.67,1.57-70.57,136.87-70.57,136.87l78.09,37.7,84.35-118.53s-63.88-82.39-91.87-56.04Z"/><path class="cls-9" d="m1806.33,940.56l-38.95,64.92c-.59.99-1.29,1.88-2.14,2.66-4.64,4.32-20.5,16.87-32.76-.22-10.45-14.57-20.26-27.81-30.77-33.27-6.14-3.19-13.69-.64-16.8,5.53-6.42,12.72-18.85,38.64-26.65,63.23-1.96,6.16,1.22,12.78,7.21,15.2,15.81,6.41,47.06,17.99,74.8,21.82,4.56.63,9.07-1.29,11.78-5.01,11.93-16.35,45.56-62.02,57.04-73.46,10.66-10.62,30.34-6.62,39.21-4.07,3.37.97,6.95.5,9.95-1.3,9-5.42,24.7-18.91,10.33-41.76-3.57-5.68-1.75-13.25,3.86-16.93,10.05-6.61,20.95-19.01,10.56-39.1-10.51-20.33-29.29-22.16-42.07-20.6-5.66.69-11.4-2.28-13.57-7.55-.97-2.34-2.87-4.34-6.43-5.06-6.7-1.36-11.1-7.49-9.78-14.2,2.25-11.51.56-26.45-17.81-36.55-33.69-18.53-63.21,11.66-70.71,37.14-7.51,25.48,30.17,43.49,53.86,46.49,17.41,2.21,26.95,21.21,30.79,31.14,1.39,3.6,1.05,7.63-.94,10.94Z"/><path class="cls-38" d="m1792.68,1021.4s16.76-39.43,35.94-37.82c19.18,1.61,34.27,20.71,10.5,42.19-29.56,26.72-46.44-4.37-46.44-4.37Z"/><path class="cls-39" d="m1817.99,2779.06c37.08,3.21,101.45,8.41,152.19,10.65,30.5,1.34,48.06-1.64,58.17-5.69-.02,1.14-.05,2.22-.09,3.22-.24,5.34-4.58,9.61-9.97,9.91-95.88,5.35-172.13,1.85-199.27.2-5.61-.34-8.96-6.44-6.09-11.23,1.44-2.39,3.18-4.74,5.06-7.06Z"/><path class="cls-37" d="m1970.18,2789.7c-50.74-2.23-115.1-7.44-152.19-10.65,36.46-44.73,152.19-74.88,152.19-74.88h32.68c22.48,32.4,25.73,63.26,25.49,79.84-10.11,4.05-27.67,7.03-58.17,5.69Z"/><path class="cls-36" d="m2008.37,2650.82l-3.06,60.53c-.33,6.55-5.24,12.06-11.8,13-6.53.93-15.28,1.05-24.55-2.03-5.71-1.9-9.94-6.71-11-12.57l-10.57-58.92h60.98Z"/><path class="cls-26" d="m2432.9,2789.25c16.08-2.24,23.36-10.6,26.41-19.53.02.08.04.16.06.24,2.37,9.42-3.12,19.18-14.08,23.83-13.26,5.61-27.75,6.57-39,6.11-12.07-.5-23.15-5.49-29.24-13.49l-.09-.12c12.12,6,29.12,6.7,55.94,2.96Z"/><path class="cls-32" d="m2357.08,2650.43h26.95c41.06-.84,66.84,85.76,75.28,119.29-3.05,8.93-10.33,17.29-26.41,19.53-26.82,3.74-43.83,3.04-55.94-2.96-22.18-29.19-33.18-71.94-38.46-96.89-6.01-28.38,18.58-38.97,18.58-38.97Z"/><path class="cls-34" d="m2380.57,2594.25l14.97,59.53c1.84,7.3-1.66,14.85-8.41,18.31-8.37,4.3-20.16,8.81-31,7.51-5.1-.61-9.33-4.2-11.01-9l-21.97-62.63,57.42-13.71Z"/><path class="cls-35" d="m2398.42,2611.46c-18.62,16.52-79.19,18.7-79.19,18.7-218.18-523.66-309.15-667.82-309.15-667.82,31.5,197.65,6.79,705,6.79,705-36,15.89-82.42,0-82.42,0-2.92-323.59-48.48-671.29-107.24-893.77,147.47-3.31,227.61-35.46,253.21-55.71,122.92,198.17,318,893.61,318,893.61Z"/><path class="cls-27" d="m1790.06,1919.9l27.13,168.77c4.73,29.43,31.99,49.84,61.72,46.22l406.12-49.54c19.87-2.42,34.93-19.01,35.33-38.93.87-43.61-.84-121.22-19.15-191.93l-511.16,65.41Z"/><path class="cls-3" d="m1890.28,2123.67c-.58,0-1.08-.43-1.15-1.02-.08-.64.38-1.21,1.01-1.29l9.19-1.12c.66-.1,1.21.38,1.29,1.01.08.64-.38,1.21-1.01,1.29l-9.19,1.12s-.1,0-.14,0Zm-21.48-.53c-.08,0-.17,0-.26-.03-3.06-.69-6.09-1.67-9-2.89-.59-.25-.87-.93-.62-1.52.25-.59.94-.87,1.52-.62,2.78,1.17,5.68,2.1,8.61,2.77.62.14,1.01.76.87,1.39-.12.54-.6.9-1.13.9Zm52.13-3.21c-.58,0-1.08-.43-1.15-1.02-.08-.64.38-1.21,1.01-1.29l9.19-1.12c.61-.08,1.21.38,1.29,1.01.08.63-.38,1.21-1.01,1.29l-9.2,1.12s-.09,0-.14,0Zm30.65-3.74c-.58,0-1.08-.43-1.15-1.02-.08-.64.38-1.21,1.01-1.29l9.19-1.12c.66-.09,1.21.37,1.29,1.01.08.64-.38,1.21-1.01,1.29l-9.19,1.12s-.1,0-.14,0Zm30.65-3.74c-.58,0-1.08-.43-1.15-1.02-.08-.63.38-1.21,1.01-1.29l9.19-1.12c.66-.11,1.21.38,1.29,1.01.08.64-.38,1.21-1.01,1.29l-9.19,1.12s-.1,0-.14,0Zm30.65-3.74c-.58,0-1.08-.43-1.15-1.02-.08-.64.38-1.21,1.01-1.29l9.19-1.12c.66-.07,1.21.38,1.29,1.01.08.64-.38,1.21-1.01,1.29l-9.19,1.12s-.1,0-.14,0Zm-170.56-.57c-.3,0-.61-.12-.84-.36-2.18-2.27-4.17-4.75-5.92-7.36-.36-.53-.21-1.25.32-1.61.52-.36,1.25-.22,1.61.32,1.68,2.5,3.58,4.87,5.67,7.05.44.46.43,1.19-.03,1.64-.23.21-.51.32-.8.32Zm201.21-3.17c-.58,0-1.08-.43-1.15-1.02-.08-.64.38-1.21,1.01-1.29l9.19-1.12c.66-.09,1.21.38,1.29,1.01.08.64-.38,1.21-1.01,1.29l-9.19,1.12s-.1,0-.14,0Zm30.65-3.74c-.58,0-1.08-.43-1.15-1.02-.08-.64.38-1.21,1.01-1.29l9.19-1.12c.61-.1,1.21.38,1.29,1.01.08.63-.38,1.21-1.01,1.29l-9.19,1.12s-.09,0-.14,0Zm30.65-3.74c-.58,0-1.08-.43-1.15-1.02-.08-.64.38-1.21,1.01-1.29l9.19-1.12c.65-.07,1.21.38,1.29,1.01.08.64-.38,1.21-1.01,1.29l-9.19,1.12s-.1,0-.14,0Zm30.65-3.74c-.58,0-1.08-.43-1.15-1.02-.08-.63.38-1.21,1.01-1.29l9.19-1.12c.65-.09,1.21.38,1.29,1.01.08.64-.38,1.21-1.01,1.29l-9.19,1.12s-.1,0-.14,0Zm30.65-3.74c-.58,0-1.08-.43-1.15-1.02-.08-.64.38-1.21,1.01-1.29l9.19-1.12c.65-.1,1.21.38,1.29,1.01.08.64-.38,1.21-1.01,1.29l-9.19,1.12s-.1,0-.14,0Zm30.65-3.74c-.58,0-1.08-.43-1.15-1.02-.08-.64.38-1.21,1.01-1.29l9.19-1.12c.65-.07,1.21.38,1.29,1.01.08.64-.38,1.21-1.01,1.29l-9.19,1.12s-.1,0-.14,0Zm30.65-3.74c-.58,0-1.08-.43-1.15-1.02-.08-.64.38-1.21,1.01-1.29l9.19-1.12c.65-.09,1.21.38,1.29,1.01.08.63-.38,1.21-1.01,1.29l-9.19,1.12s-.09,0-.14,0Zm-398.93-1.51c-.55,0-1.04-.39-1.14-.96l-1.48-9.16c-.1-.63.33-1.22.96-1.33.64-.11,1.22.33,1.33.96l1.48,9.13c.11.63-.31,1.23-.94,1.34-.07.01-.13.02-.2.02Zm429.58-2.23c-.58,0-1.08-.43-1.15-1.02-.08-.64.38-1.21,1.01-1.29l9.19-1.12c.65-.1,1.21.38,1.29,1.01.08.64-.38,1.21-1.01,1.29l-9.19,1.12s-.1,0-.14,0Zm29.89-6.66c-.4,0-.79-.21-1-.59-.32-.55-.13-1.26.43-1.58,2.6-1.48,5.01-3.29,7.18-5.35.47-.44,1.2-.42,1.64.04.44.46.42,1.2-.04,1.64-2.31,2.2-4.88,4.11-7.64,5.68-.18.11-.38.15-.57.15Zm-464.38-21.6c-.56,0-1.05-.4-1.14-.97l-1.47-9.15c-.1-.63.33-1.22.96-1.33.66-.12,1.22.33,1.33.96l1.47,9.15c.1.63-.33,1.22-.96,1.33-.06,0-.13.02-.18.02Zm482.51-2.35c-.09,0-.18-.01-.28-.04-.62-.15-1-.78-.85-1.4.65-2.63,1-5.36,1.06-8.09l.02-.83c0-.64.53-1.15,1.16-1.15h.01c.64,0,1.15.53,1.15,1.17l-.02.85c-.06,2.9-.44,5.79-1.13,8.59-.13.53-.6.88-1.12.88Zm-487.41-28.13c-.56,0-1.05-.4-1.14-.97l-1.47-9.15c-.1-.63.33-1.22.96-1.33.65-.1,1.22.33,1.33.96l1.47,9.15c.1.63-.33,1.22-.96,1.33-.06,0-.13.02-.18.02Zm488.66-2.65c-.64,0-1.15-.51-1.16-1.15-.02-2.99-.05-6.08-.11-9.25,0-.64.5-1.17,1.14-1.18.61-.11,1.17.5,1.18,1.14.06,3.18.09,6.27.11,9.28,0,.64-.51,1.16-1.15,1.17h0Zm-493.56-27.83c-.56,0-1.05-.4-1.14-.97l-1.47-9.15c-.1-.63.33-1.22.96-1.33.67-.11,1.23.33,1.33.96l1.47,9.15c.1.63-.33,1.22-.96,1.33-.06,0-.13.02-.18.02Zm492.82-3.05c-.62,0-1.13-.49-1.16-1.11-.13-3.04-.27-6.12-.44-9.24-.04-.64.45-1.19,1.09-1.22.72-.07,1.18.46,1.22,1.09.17,3.13.31,6.23.44,9.27.03.64-.47,1.18-1.11,1.2-.02,0-.03,0-.05,0Zm-497.72-27.44c-.56,0-1.05-.4-1.14-.97l-1.47-9.15c-.1-.63.33-1.22.96-1.33.65-.09,1.22.33,1.33.96l1.47,9.15c.1.63-.33,1.22-.96,1.33-.06,0-.13.02-.18.02Zm495.84-3.39c-.6,0-1.11-.46-1.16-1.07-.24-3.05-.51-6.12-.8-9.22-.06-.64.41-1.2,1.05-1.26.68-.07,1.2.41,1.26,1.05.29,3.1.55,6.19.8,9.24.05.64-.42,1.19-1.06,1.25-.03,0-.06,0-.09,0Zm-500.74-27.1c-.56,0-1.05-.4-1.14-.97l-1.66-10.33,4.77-.61c.72-.07,1.21.37,1.3,1,.08.64-.37,1.21-1,1.3l-2.4.31,1.28,7.96c.1.63-.33,1.22-.96,1.33-.06,0-.13.02-.18.02Zm497.6-3.62c-.58,0-1.08-.43-1.15-1.01-.38-3.05-.79-6.1-1.21-9.17-.09-.63.35-1.22.99-1.3.6-.14,1.22.35,1.3.99.43,3.08.83,6.15,1.21,9.2.08.64-.37,1.21-1,1.29-.05,0-.1,0-.14,0Zm-474.05-8.72c-.58,0-1.07-.43-1.15-1.01-.08-.64.37-1.21,1-1.3l9.18-1.18c.71-.1,1.21.37,1.3,1,.08.64-.37,1.21-1,1.3l-9.19,1.18c-.05,0-.1,0-.15,0Zm30.63-3.92c-.58,0-1.07-.43-1.15-1.01-.08-.64.37-1.21,1-1.3l9.19-1.18c.7-.1,1.22.37,1.3,1,.08.64-.37,1.21-1,1.3l-9.19,1.18c-.05,0-.1,0-.15,0Zm30.63-3.92c-.58,0-1.07-.43-1.15-1.01-.08-.64.37-1.21,1-1.3l9.19-1.18c.7-.09,1.22.38,1.3,1,.08.64-.37,1.21-1,1.3l-9.19,1.18c-.05,0-.1,0-.15,0Zm30.63-3.92c-.58,0-1.07-.43-1.15-1.01-.08-.64.37-1.21,1-1.3l9.19-1.18c.74-.08,1.21.37,1.3,1,.08.64-.37,1.21-1,1.3l-9.19,1.18c-.05,0-.1,0-.15,0Zm30.63-3.92c-.58,0-1.07-.43-1.15-1.01-.08-.64.37-1.21,1-1.3l9.19-1.18c.73-.07,1.21.37,1.3,1,.08.64-.37,1.21-1,1.3l-9.19,1.18c-.05,0-.1,0-.15,0Zm30.63-3.92c-.58,0-1.07-.43-1.15-1.01-.08-.64.37-1.21,1-1.3l9.19-1.18c.72-.06,1.21.37,1.3,1,.08.64-.37,1.21-1,1.3l-9.19,1.18c-.05,0-.1,0-.15,0Zm316.34-2.22c-.55,0-1.04-.4-1.14-.96-.54-3.03-1.1-6.06-1.69-9.09-.12-.63.29-1.23.92-1.36.62-.14,1.23.29,1.36.92.6,3.04,1.16,6.08,1.7,9.13.11.63-.31,1.23-.94,1.34-.07.01-.14.02-.2.02Zm-285.71-1.7c-.58,0-1.07-.43-1.15-1.01-.08-.64.37-1.21,1-1.3l9.19-1.18c.72-.1,1.21.37,1.3,1,.08.64-.37,1.21-1,1.3l-9.19,1.18c-.05,0-.1,0-.15,0Zm30.63-3.92c-.58,0-1.07-.43-1.15-1.01-.08-.64.37-1.21,1-1.3l9.19-1.18c.71-.09,1.21.37,1.3,1,.08.64-.37,1.21-1,1.3l-9.19,1.18c-.05,0-.1,0-.15,0Zm30.63-3.92c-.58,0-1.07-.43-1.15-1.01-.08-.64.37-1.21,1-1.3l9.19-1.18c.71-.08,1.22.37,1.3,1,.08.64-.37,1.21-1,1.3l-9.19,1.18c-.05,0-.1,0-.15,0Zm30.63-3.92c-.58,0-1.07-.43-1.15-1.01-.08-.64.37-1.21,1-1.3l9.19-1.18c.7-.08,1.22.37,1.3,1,.08.64-.37,1.21-1,1.3l-9.19,1.18c-.05,0-.1,0-.15,0Zm30.63-3.92c-.58,0-1.07-.43-1.15-1.01-.08-.64.37-1.21,1-1.3l9.19-1.18c.7-.07,1.22.37,1.3,1,.08.64-.37,1.21-1,1.3l-9.19,1.18c-.05,0-.1,0-.15,0Zm30.63-3.92c-.58,0-1.07-.43-1.15-1.01-.08-.64.37-1.21,1-1.3l9.19-1.18c.74-.1,1.21.37,1.3,1,.08.64-.37,1.21-1,1.3l-9.19,1.18c-.05,0-.1,0-.15,0Zm30.63-3.92c-.58,0-1.07-.43-1.15-1.01-.08-.64.37-1.21,1-1.3l9.19-1.18c.73-.09,1.21.37,1.3,1,.08.64-.37,1.21-1,1.3l-9.19,1.18c-.05,0-.1,0-.15,0Zm30.63-3.92c-.58,0-1.07-.43-1.15-1.01-.08-.64.37-1.21,1-1.3l9.19-1.18c.73-.09,1.21.38,1.3,1,.08.64-.37,1.21-1,1.3l-9.19,1.18c-.05,0-.1,0-.15,0Zm65.04-1.1c-.52,0-1-.36-1.13-.89-.48-2-.98-4-1.49-6l-1.01.13c-.66.1-1.21-.37-1.3-1-.08-.64.37-1.21,1-1.3l3.04-.39.25.99c.61,2.33,1.19,4.67,1.76,7.02.15.62-.23,1.25-.85,1.4-.09.02-.18.03-.27.03Zm-34.41-2.82c-.58,0-1.07-.43-1.15-1.01-.08-.64.37-1.21,1-1.3l9.19-1.18c.72-.08,1.21.37,1.3,1,.08.64-.37,1.21-1,1.3l-9.19,1.18c-.05,0-.1,0-.15,0Z"/><path class="cls-33" d="m1893.25,1781.66l-.45-13.23c.98-3.3,3.56-5.87,6.87-6.84,12.39-3.63,43.29-11.18,59.83-1.83l4.2,14.9-70.45,7Z"/><path class="cls-29" d="m1931.13,1764.03c-2.82,1.08-5.74,1.45-8.75,1.11-3.65-.42-6.54-3.26-7.01-6.88l-5.24-40.93,20.83-2.67,5.23,40.89c.47,3.64-1.62,7.15-5.07,8.47Z"/><path class="cls-30" d="m2094.97,1755.85l-.45-13.23c.98-3.3,3.56-5.87,6.87-6.84,12.39-3.63,43.29-11.18,59.83-1.83l4.2,14.9-70.45,7Z"/><path class="cls-28" d="m2132.86,1738.22c-2.82,1.08-5.74,1.45-8.75,1.11-3.65-.42-6.54-3.26-7.01-6.88l-5.79-45.24,20.83-2.67,5.78,45.21c.47,3.64-1.62,7.15-5.07,8.47Z"/><path class="cls-31" d="m1909.31,1727.63l223.03-36.08c5.09-.82,8.95-5.06,9.18-10.18.33-7.17.07-17.8-2.94-28.48-3.42-12.14-15.24-19.97-27.84-18.66-41.91,4.35-148.28,17.99-203.94,48.69-5.89,3.25-9.81,9.13-10.55,15.79-.71,6.35-.65,14.7,2.37,22.81,1.61,4.31,6.11,6.85,10.68,6.11Z"/><path class="cls-5" d="m1903.81,1718.59c-1.4,0-2.67-.96-3.01-2.39-.08-.37-2.06-9.05-.85-17.81.97-7.09,5.68-13.29,12.3-16.18,12.1-5.3,35.33-14.65,54.98-17.72,1.69-.24,3.27.89,3.53,2.57.26,1.69-.89,3.27-2.57,3.53-19.67,3.08-43.94,13.11-53.46,17.28-4.65,2.04-7.97,6.39-8.65,11.37-1.06,7.65.73,15.5.75,15.57.39,1.66-.65,3.32-2.31,3.71-.23.05-.47.08-.7.08Z"/><path class="cls-41" d="m1788.68,1789.86c72.24-10.18,384.85-53.53,477.18-54.19,7.95-.06,15.07,4.85,17.75,12.3,8.48,23.6,26.51,78.65,32.39,134.74.8,7.63-3.96,14.77-11.29,17.15l-202.53,65.83-73.73,9.43-226.78-15.66c-7.99-.55-14.58-6.42-16-14.27-5.04-27.96-15.73-93.7-13.56-137.17.46-9.24,7.38-16.87,16.58-18.17Z"/><path class="cls-3" d="m2027.91,1958.18s-.05,0-.08,0l-9.24-.64c-.64-.05-1.12-.6-1.08-1.23.05-.64.61-1.02,1.23-1.08l9.24.64c.64.05,1.12.6,1.08,1.23-.04.61-.55,1.08-1.16,1.08Zm8.44-1.08c-.58,0-1.07-.43-1.15-1.01-.08-.64.37-1.21,1-1.3l9.19-1.18c.73-.1,1.21.37,1.3,1,.08.64-.37,1.21-1,1.3l-9.19,1.18c-.05,0-.1,0-.15,0Zm-39.25-1.05s-.05,0-.08,0l-9.24-.64c-.64-.05-1.12-.6-1.08-1.23.05-.64.6-1.03,1.23-1.08l9.24.64c.64.05,1.12.6,1.08,1.23-.04.61-.55,1.08-1.16,1.08Zm-30.8-2.13s-.05,0-.08,0l-9.24-.64c-.64-.04-1.12-.6-1.08-1.23.04-.64.67-1.03,1.23-1.08l9.24.64c.64.04,1.12.6,1.08,1.23-.04.61-.55,1.08-1.16,1.08Zm100.68-.74c-.58,0-1.07-.43-1.15-1.01-.08-.64.37-1.21,1-1.3l9.19-1.18c.72-.09,1.21.37,1.3,1,.08.64-.37,1.21-1,1.3l-9.19,1.18c-.05,0-.1,0-.15,0Zm-131.48-1.38s-.05,0-.08,0l-9.24-.64c-.64-.05-1.12-.6-1.08-1.23.05-.64.65-1.04,1.23-1.08l9.24.64c.64.05,1.12.6,1.08,1.23-.04.61-.55,1.08-1.16,1.08Zm-30.8-2.13s-.05,0-.08,0l-9.24-.64c-.64-.05-1.12-.6-1.08-1.23.05-.64.64-1.04,1.23-1.08l9.24.64c.64.05,1.12.6,1.08,1.23-.04.61-.55,1.08-1.16,1.08Zm192.91-.41c-.58,0-1.07-.43-1.15-1.01-.08-.63.37-1.21,1-1.29l.6-.08,8.02-2.63c.61-.19,1.26.14,1.46.74.2.61-.14,1.26-.74,1.46l-9.05,2.8s-.1,0-.14,0Zm-223.72-1.72s-.05,0-.08,0l-9.24-.64c-.64-.05-1.12-.6-1.08-1.23.05-.64.63-1.05,1.23-1.08l9.24.64c.64.05,1.12.6,1.08,1.23-.04.61-.55,1.08-1.16,1.08Zm-30.8-2.13s-.05,0-.08,0l-9.24-.64c-.64-.04-1.12-.6-1.08-1.23.05-.64.62-1.06,1.23-1.08l9.24.64c.64.04,1.12.6,1.08,1.23-.04.61-.55,1.08-1.16,1.08Zm-30.8-2.13s-.05,0-.08,0l-9.86-.68-.16-.88c-.12-.63.27-1.37.9-1.48.34-.08.67-.01.92.16l8.36.58c.64.04,1.12.6,1.08,1.23-.04.61-.55,1.08-1.16,1.08Zm314.71-3.46c-.49,0-.94-.31-1.1-.8-.2-.61.14-1.26.74-1.46l8.81-2.86c.6-.18,1.26.14,1.46.74.2.61-.14,1.26-.74,1.46l-8.81,2.86c-.12.04-.24.06-.36.06Zm29.37-9.54c-.49,0-.94-.31-1.1-.8-.2-.61.14-1.26.74-1.46l8.81-2.86c.62-.18,1.26.14,1.46.74.2.61-.14,1.26-.74,1.46l-8.81,2.86c-.12.04-.24.06-.36.06Zm-356.71-9.21c-.56,0-1.05-.4-1.14-.98-.47-2.93-.95-5.99-1.43-9.17-.1-.63.34-1.22.97-1.32.66-.06,1.22.34,1.32.97.48,3.17.95,6.23,1.42,9.16.1.63-.33,1.22-.96,1.32-.06,0-.12.02-.18.02Zm386.08-.33c-.49,0-.94-.31-1.1-.8-.2-.61.14-1.26.74-1.46l8.81-2.86c.61-.19,1.26.13,1.46.74.2.61-.13,1.26-.74,1.46l-8.81,2.86c-.12.04-.24.06-.36.06Zm29.36-9.54c-.49,0-.94-.31-1.1-.8-.2-.61.13-1.26.74-1.46l8.81-2.86c.61-.19,1.26.14,1.46.74.2.61-.14,1.26-.74,1.46l-8.81,2.86c-.12.04-.24.06-.36.06Zm29.37-9.54c-.49,0-.94-.31-1.1-.8-.2-.61.14-1.26.74-1.46l8.81-2.86c.61-.21,1.26.14,1.46.74.2.61-.14,1.26-.74,1.46l-8.81,2.86c-.12.04-.24.06-.36.06Zm29.37-9.54c-.49,0-.94-.31-1.1-.8-.2-.61.14-1.26.74-1.46l8.81-2.86c.6-.2,1.26.13,1.46.74.2.61-.13,1.26-.74,1.46l-8.81,2.86c-.12.04-.24.06-.36.06Zm-478.62-1.61c-.57,0-1.07-.42-1.15-1.01-.4-3.03-.78-6.11-1.15-9.21-.08-.64.38-1.21,1.01-1.29.64-.07,1.21.38,1.29,1.01.37,3.09.76,6.16,1.15,9.18.08.64-.37,1.22-1,1.3-.05,0-.1,0-.15,0Zm502.06-11.73c-.58,0-1.08-.43-1.15-1.02-.38-3.06-.79-6.11-1.23-9.16-.09-.64.35-1.22.98-1.31.64-.13,1.22.35,1.31.98.44,3.06.86,6.13,1.24,9.21.08.64-.37,1.21-1.01,1.29-.05,0-.1,0-.14,0Zm-505.48-18.98c-.59,0-1.1-.45-1.15-1.06-.28-3.09-.53-6.18-.76-9.25-.05-.64.43-1.19,1.07-1.24.72.06,1.19.43,1.24,1.07.23,3.06.48,6.14.76,9.22.06.64-.41,1.2-1.05,1.25-.03,0-.07,0-.1,0Zm500.62-11.51c-.54,0-1.03-.39-1.14-.94-.6-3.05-1.21-6.07-1.84-9.06-.13-.63.27-1.24.89-1.37.65-.13,1.24.27,1.37.89.64,3,1.25,6.04,1.84,9.1.12.63-.29,1.23-.92,1.36-.07.02-.15.02-.22.02Zm-502.48-19.32c-.63,0-1.14-.5-1.16-1.13-.06-2.51-.09-4.97-.09-7.39v-1.91c0-.64.53-1.15,1.17-1.15h0c.64,0,1.16.53,1.15,1.17v1.89c0,2.4.03,4.85.09,7.34.01.64-.49,1.17-1.13,1.19h-.03Zm495.77-10.83c-.52,0-.99-.35-1.12-.88-.76-3.04-1.53-6.03-2.31-8.96-.16-.62.2-1.25.82-1.42.62-.15,1.25.2,1.42.82.78,2.93,1.55,5.94,2.31,8.99.15.62-.22,1.25-.84,1.4-.09.02-.19.04-.28.04Zm-484.34-10.67c-.57,0-1.07-.42-1.15-1-.09-.64.35-1.22.98-1.31l9.18-1.28c.61-.13,1.22.35,1.3.99.09.63-.35,1.22-.99,1.3l-9.18,1.28c-.06,0-.11.01-.16.01Zm30.6-4.25c-.57,0-1.07-.42-1.15-1-.09-.63.36-1.22.99-1.3l9.18-1.26c.61-.13,1.21.35,1.3.99.09.63-.36,1.22-.99,1.3l-9.18,1.26c-.05,0-.11.01-.16.01Zm30.61-4.19c-.57,0-1.07-.42-1.15-1-.09-.63.36-1.21.99-1.3l9.18-1.24c.65-.07,1.22.36,1.3.99.09.63-.36,1.22-.99,1.3l-9.19,1.24c-.05,0-.11,0-.15,0Zm30.61-4.13c-.57,0-1.07-.42-1.15-1-.08-.64.36-1.22.99-1.3l9.18-1.23c.66-.11,1.21.36,1.3.99.08.64-.36,1.22-.99,1.3l-9.18,1.23c-.05,0-.11,0-.15,0Zm30.62-4.07c-.57,0-1.07-.42-1.15-1.01-.08-.63.36-1.21,1-1.3l9.19-1.21c.64-.08,1.22.37,1.3,1,.08.64-.37,1.21-1,1.3l-9.19,1.21c-.05,0-.1,0-.15,0Zm353.72-2.48c-.5,0-.96-.33-1.11-.83-.92-3.08-1.83-6.03-2.72-8.84-.19-.61.14-1.26.75-1.45.63-.21,1.26.15,1.45.75.89,2.82,1.8,5.78,2.73,8.88.18.61-.16,1.26-.78,1.44-.11.03-.22.05-.33.05Zm-323.09-1.53c-.58,0-1.07-.42-1.15-1.01-.08-.63.37-1.21,1-1.3l9.19-1.19c.62-.08,1.21.37,1.3,1,.08.64-.37,1.21-1,1.3l-9.19,1.19s-.1,0-.15,0Zm30.63-3.93c-.58,0-1.07-.43-1.15-1.01-.08-.63.37-1.21,1-1.29l9.19-1.16c.65-.1,1.22.37,1.29,1,.08.64-.37,1.21-1,1.29l-9.19,1.16s-.1,0-.14,0Zm30.64-3.85c-.58,0-1.08-.43-1.15-1.02-.08-.64.37-1.21,1.01-1.29l9.19-1.14c.68-.1,1.21.38,1.29,1.01.08.64-.37,1.21-1.01,1.29l-9.19,1.14s-.1,0-.14,0Zm30.65-3.76c-.58,0-1.08-.43-1.15-1.02-.08-.63.38-1.21,1.01-1.29l9.19-1.11c.68-.1,1.21.38,1.29,1.01.08.64-.38,1.21-1.01,1.29l-9.19,1.11s-.09,0-.14,0Zm30.67-3.65c-.58,0-1.08-.43-1.15-1.02-.08-.64.38-1.21,1.01-1.28l9.2-1.07c.66-.1,1.21.38,1.28,1.01.08.64-.38,1.21-1.01,1.28l-9.2,1.07s-.09,0-.13,0Zm30.68-3.51c-.58,0-1.08-.44-1.15-1.03-.07-.64.39-1.21,1.02-1.28l9.21-1.02c.7-.03,1.21.4,1.28,1.03.07.64-.39,1.2-1.03,1.28l-9.2,1.02s-.09,0-.13,0Zm30.7-3.35c-.59,0-1.09-.44-1.15-1.04-.07-.64.4-1.2,1.03-1.27l9.21-.97c.69-.02,1.21.4,1.27,1.03.07.64-.4,1.21-1.03,1.27l-9.21.97s-.08,0-.12,0Zm30.72-3.14c-.59,0-1.09-.45-1.15-1.05-.06-.64.4-1.2,1.04-1.26l9.22-.89c.65-.09,1.2.41,1.26,1.04.06.64-.4,1.2-1.04,1.26l-9.22.89s-.08,0-.11,0Zm98.88-2.67c-.48,0-.93-.3-1.09-.77l-1.18-3.32c-1.35,0-2.75.03-4.21.06h-.02c-.63,0-1.15-.5-1.16-1.14-.01-.64.49-1.17,1.14-1.18,1.58-.03,3.09-.06,4.55-.06.8,0,1.5.46,1.74,1.14l1.33,3.73c.21.6-.11,1.26-.71,1.48-.13.04-.26.07-.39.07Zm-68.13-.17c-.6,0-1.1-.45-1.15-1.06-.06-.64.41-1.2,1.05-1.25,3.16-.27,6.24-.53,9.24-.78.64-.04,1.19.42,1.25,1.06.05.64-.42,1.19-1.06,1.25-2.99.24-6.07.5-9.22.77-.03,0-.07,0-.1,0Zm30.78-2.38c-.61,0-1.12-.47-1.16-1.08-.04-.64.44-1.19,1.08-1.23,3.21-.21,6.3-.4,9.26-.57.69-.1,1.19.45,1.22,1.09.04.64-.45,1.19-1.09,1.22-2.95.17-6.03.36-9.24.57-.03,0-.05,0-.08,0Z"/><path class="cls-49" d="m2099.19,1997.54l-64.59,8.27c-8.46,1.08-16.4-4.3-18.47-12.54l-15.42-61.2c-2.46-9.75,4.2-19.45,14.22-20.74l77.6-9.93c9.82-1.26,18.59,6.14,18.97,15.98l2.41,62.86c.33,8.68-6.05,16.19-14.71,17.3Z"/><path class="cls-42" d="m2089.78,1987.12l-49.16,6.29c-6.44.82-12.48-3.27-14.06-9.54l-11.73-46.58c-1.87-7.42,3.2-14.81,10.82-15.78l59.06-7.56c7.47-.96,14.15,4.67,14.44,12.16l1.84,47.85c.25,6.61-4.61,12.32-11.2,13.16Z"/><path class="cls-40" d="m2051.36,1491.81c15.24,62.95,15.64,124.54,13.32,146.97-.87,8.45-7.67,15.06-16.15,15.65-9.63.67-22.74,1.56-34.45,2.23-12.88.74-27.17-7.4-36.73-14.2-4.88-3.47-11.19,1.93-8.47,7.27,4.69,9.19,12.85,16.42,20.94,22.57,4.87,3.7,21.05,10.27,19.92,17.56-.36,2.3-1.74,4.3-3.23,6.09-8.99,10.79-22.6,16.55-36.03,20.68-1.68.52-3.46,1.07-4.65,2.37-.33,8.69,26.38,18.33,33.27,20.62,10.33,3.43,21.28,4.88,32.13,3.74,26.88-2.83,51.7-21.38,66.18-43.75,38.7-59.8,58.71-132.02,66.02-187.25-36-35.99-90.36-26.87-112.1-20.54Z"/><path class="cls-50" d="m2163.46,1518.04c28.71-216.9-138.44-383.68-138.44-383.68l-99.45,115.94c75.5,94.11,111.4,180.35,127.79,248.08,21.74-6.33,74.09-16.34,110.1,19.66Z"/><path class="cls-51" d="m2050.99,1497.32c-2.78,0-5.3-1.89-5.98-4.71-20.21-83.5-62.81-166.16-126.6-245.68-2.13-2.65-1.71-6.53.95-8.66,2.65-2.12,6.53-1.7,8.66.95,64.94,80.95,108.33,165.23,128.97,250.49.8,3.31-1.23,6.63-4.54,7.43-.49.12-.97.17-1.46.17Z"/><path class="cls-53" d="m704.11,2783.15c.02-1.06-.05-2.13-.33-3.21-15.99-63.41-95.38-102.91-95.38-102.91l-31.46,2.47c-18.09,55.89-15.76,90.17-12.86,105.43.08.43.21.84.32,1.25,25.95,2.32,79.36,3.83,139.7-3.03Z"/><path class="cls-55" d="m564.41,2786.19c1.4,5.1,5.16,9.07,9.98,10.08,36.91,7.76,95.58,1.52,120.22-1.7,5.43-.71,9.41-5.74,9.5-11.41-60.34,6.87-113.75,5.35-139.7,3.03Z"/><path class="cls-54" d="m564.3,2632.65l13.32,64.14c.98,4.7,4.59,8.22,8.96,8.63,5.35.5,12.98.8,20.64-.33,6.87-1.01,11.66-7.99,10.44-15.49l-9.26-56.95h-44.11Z"/><path class="cls-52" d="m840.35,2785.37c-34.74-.97-52.71-5.06-62-8.86-.02,3.45,0,6.97.11,10.61.12,3.89,3,7,6.55,6.98l190.76-1.23c6.09-.04,9.64-7.1,7.01-12.68-25.01,2.07-88.71,6.69-142.42,5.19Z"/><path class="cls-46" d="m982.77,2780.19c-.23-.49-.43-.98-.76-1.44-16.85-23.54-59.75-70.41-144.54-90.74l-40.67-1.28s-18.11,31.48-18.45,89.79c9.29,3.8,27.26,7.89,62,8.86,53.71,1.5,117.41-3.12,142.42-5.19Z"/><path class="cls-44" d="m787.45,2626.97c.64,3,9.11,48.63,12.38,66.33.78,4.2,4.06,7.29,7.95,7.51,6.96.39,18.2.44,27.86-2.19,5.21-1.42,8.71-6.73,8.34-12.62l-4.55-72.19-51.98,13.16Z"/><path class="cls-48" d="m756.62,1784.33s55.95,384.47,96.33,841.98c.75,8.52-6.04,15.94-14.41,17.7-12.34,2.6-30.47,5.68-45.48,5.26-8.01-.22-14.71-6.17-16.06-14.07-13.75-80.67-111.91-513.6-137.67-608.88,0,0-29.59,404.74-20.13,614.72.24,5.22-3.59,9.75-8.78,10.35-7.88.91-20.48,1.6-36.51-.1-6.09-.65-11-5.25-11.87-11.31-9.8-68.27-66.19-474.64-63.79-767.38.14-16.51,19.37-152.14,19.37-152.14l239,63.86Z"/><path class="cls-45" d="m509.21,1806.49c-5.75-2.04-9.76-7.26-10.39-13.33-7.44-72.19-43.47-519.76,183.97-703.88,0,0,13.04-34.13,120.25,49.76,107.21,83.88,49.81,171.81,24.14,293.08-31.06,146.75-85.56,266.71-61.44,357.02,1.66,6.23-1.61,12.78-7.67,15.01-83.28,30.69-166.24,31.71-248.87,2.35Z"/><path class="cls-43" d="m771.51,955.17c-.07,6.37-90.89,135.36-90.89,135.36,0,0,16.3,32.1,94.12,58.17l67.18-138.12-70.41-55.42Z"/><path class="cls-47" d="m843.02,881.26s32.31,74.23,34.49,113.2c2.17,38.96,10.57,64.24-34.49,72.09-45.05,7.85-83-14.6-103.56-53.41,0,0-32.21-59.8-24.99-84.29,7.23-24.49,128.55-47.58,128.55-47.58Z"/><path class="cls-18" d="m754.85,985.23l2.56-1.13c3.26-1.44,4.66-5.33,3.02-8.49-6.35-12.27-18.74-40.4-2.74-46.96,20.62-8.46,102.29-25.11,119.91-54.09,16.94-27.85,1.93-63.81-20.62-74.03-1.51-.68-3.29-.14-4.06,1.32l-1.88,3.56c-1.29,2.43-4.88,2.07-5.65-.58h0c-.73-2.54-4.11-3.03-5.51-.79-5.42,8.67-20.04,22.73-59.15,29.94-55.58,10.26-92.32,32.75-93.24,71.15-.06,2.44-2.65,3.8-4.74,2.53-4.1-2.5-10.67-3.67-19.45,3.71-15.26,12.83-9.02,46.13,24.44,73.51,1.59,1.3,1.58,3.78-.14,4.9-6.07,3.95-15.11,13.34,8.32,25.87,24.24,12.96,42.33,11.89,49.3,10.74,1.73-.29,2.85-1.96,2.47-3.68l-7.44-33.75c-.42-1.91,1.03-3.72,2.99-3.72h11.59Z"/><path class="cls-17" d="m756.25,992.35s-12.33-47.42-33.59-34.12c-21.26,13.3,11.03,53.13,28.12,54.91l5.46-20.78Z"/><path class="cls-20" d="m837.54,1177.96l6.26,168.17c17.79,6.12,34.72,10.88,50.84,14.44,10.09-32.47,32.29-72.32,50.48-101.95-66.81-23.62-107.58-80.65-107.58-80.65Z"/><path class="cls-19" d="m1171.11,1175.1c-91.65,98.95-165.83,104.78-225.99,83.51-18.18,29.63-40.39,69.48-50.48,101.95,244.75,53.96,302.38-171.04,302.38-171.04l-25.92-14.42Z"/><path class="cls-23" d="m1189.69,1164.59s10.56-11.34,30.1-7.77,36.93,10.35,49.11,0c12.17-10.35,16.45,3.54,16.45,3.54l-36.45,27.71-59.2-23.48Z"/><path class="cls-21" d="m1167.89,1183.97s7.23-30.25,29.03-26.1c21.8,4.15,71.29,31.06,84.04,26.1,12.75-4.96,29.06-16.82,37.43-12.63l-14.74,18.32s37.89-21.86,44.41-8.43l-63.05,35.48s-92.24-9.23-117.14-32.74Z"/><path class="cls-22" d="m735.8,1398.06s172.31,144.31,358.37,81.34c11.54-3.91,24.16-3.06,34.93,2.63l53.49,28.25c22.45,11.86,50.26,4.07,63.28-17.72,7.43-12.43,13.77-26.63,15.03-40.23l-104.67-42.37,7.72-12.83s-51.1-4.33-64.48,32.3c0,0-97.34,40.49-261.49-140.07,0,0-74.49,63.34-102.19,108.71Z"/><path class="cls-24" d="m726.52,1396.57c-.57,0-1.14-.16-1.65-.51-72.55-49.02-106.68-128.14-107.02-128.93-.63-1.5.07-3.23,1.56-3.87,1.5-.64,3.23.06,3.87,1.56.33.78,33.82,78.33,104.89,126.35,1.35.91,1.71,2.74.79,4.1-.57.84-1.5,1.3-2.44,1.3Z"/><path class="cls-25" d="m834.59,1286.91c-.97,0-1.92-.48-2.48-1.35-.22-.34-22.38-34.84-64.6-110.43-12.98-23.24-30.04-37.96-50.71-43.75-34.22-9.56-67.21,8.79-67.53,8.97-1.42.78-3.21.31-4.02-1.11-.8-1.42-.31-3.22,1.11-4.02,1.42-.81,35.35-19.79,71.98-9.53,22.26,6.21,40.54,21.87,54.32,46.56,42.11,75.4,64.19,109.78,64.41,110.12.88,1.37.49,3.19-.88,4.07-.5.32-1.05.47-1.6.47Z"/></g></g></g></svg>