<?xml version="1.0" encoding="UTF-8"?>
<svg xmlns="http://www.w3.org/2000/svg" xmlns:xlink="http://www.w3.org/1999/xlink" width="40px" height="40px" viewBox="0 0 40 40" version="1.1">
<g id="surface1">
<path style=" stroke:none;fill-rule:nonzero;fill:rgb(100%,100%,100%);fill-opacity:1;" d="M 30.527344 9.472656 L 21.054688 8.421875 L 9.472656 9.472656 L 8.421875 20 L 9.472656 30.527344 L 20 31.84375 L 30.527344 30.527344 L 31.578125 19.738281 Z M 30.527344 9.472656 "/>
<path style=" stroke:none;fill-rule:nonzero;fill:rgb(10.196078%,45.098039%,90.980392%);fill-opacity:1;" d="M 13.792969 25.804688 C 13.003906 25.273438 12.460938 24.496094 12.164062 23.472656 L 13.988281 22.71875 C 14.15625 23.351562 14.445312 23.839844 14.859375 24.1875 C 15.269531 24.535156 15.769531 24.707031 16.351562 24.707031 C 16.949219 24.707031 17.464844 24.523438 17.894531 24.160156 C 18.320312 23.796875 18.539062 23.335938 18.539062 22.773438 C 18.539062 22.199219 18.308594 21.730469 17.859375 21.367188 C 17.40625 21.003906 16.835938 20.824219 16.160156 20.824219 L 15.101562 20.824219 L 15.101562 19.015625 L 16.050781 19.015625 C 16.632812 19.015625 17.125 18.859375 17.527344 18.542969 C 17.925781 18.226562 18.125 17.792969 18.125 17.246094 C 18.125 16.753906 17.949219 16.367188 17.589844 16.074219 C 17.230469 15.78125 16.777344 15.632812 16.230469 15.632812 C 15.691406 15.632812 15.265625 15.777344 14.949219 16.0625 C 14.632812 16.351562 14.40625 16.703125 14.261719 17.117188 L 12.453125 16.367188 C 12.691406 15.6875 13.132812 15.085938 13.777344 14.570312 C 14.421875 14.050781 15.246094 13.789062 16.246094 13.789062 C 16.984375 13.789062 17.648438 13.933594 18.238281 14.21875 C 18.828125 14.503906 19.292969 14.902344 19.625 15.410156 C 19.960938 15.914062 20.125 16.484375 20.125 17.117188 C 20.125 17.761719 19.972656 18.304688 19.660156 18.753906 C 19.351562 19.199219 18.96875 19.542969 18.515625 19.78125 L 18.515625 19.890625 C 19.113281 20.140625 19.601562 20.519531 19.984375 21.035156 C 20.367188 21.546875 20.558594 22.160156 20.558594 22.875 C 20.558594 23.59375 20.375 24.230469 20.011719 24.792969 C 19.648438 25.351562 19.148438 25.792969 18.511719 26.117188 C 17.871094 26.4375 17.152344 26.601562 16.355469 26.601562 C 15.429688 26.601562 14.578125 26.335938 13.792969 25.804688 Z M 13.792969 25.804688 "/>
<path style=" stroke:none;fill-rule:nonzero;fill:rgb(10.196078%,45.098039%,90.980392%);fill-opacity:1;" d="M 25 16.742188 L 23.003906 18.191406 L 22.003906 16.671875 L 25.601562 14.074219 L 26.980469 14.074219 L 26.980469 26.316406 L 25 26.316406 Z M 25 16.742188 "/>
<path style=" stroke:none;fill-rule:nonzero;fill:rgb(91.764706%,26.27451%,20.784314%);fill-opacity:1;" d="M 30.527344 40 L 40 30.527344 L 35.261719 28.421875 L 30.527344 30.527344 L 28.421875 35.261719 Z M 30.527344 40 "/>
<path style=" stroke:none;fill-rule:nonzero;fill:rgb(20.392157%,65.882353%,32.54902%);fill-opacity:1;" d="M 7.367188 35.261719 L 9.472656 40 L 30.527344 40 L 30.527344 30.527344 L 9.472656 30.527344 Z M 7.367188 35.261719 "/>
<path style=" stroke:none;fill-rule:nonzero;fill:rgb(25.882353%,52.156863%,95.686275%);fill-opacity:1;" d="M 3.15625 0 C 1.414062 0 0 1.414062 0 3.15625 L 0 30.527344 L 4.738281 32.632812 L 9.472656 30.527344 L 9.472656 9.472656 L 30.527344 9.472656 L 32.632812 4.738281 L 30.527344 0 Z M 3.15625 0 "/>
<path style=" stroke:none;fill-rule:nonzero;fill:rgb(9.411765%,50.196078%,21.960784%);fill-opacity:1;" d="M 0 30.527344 L 0 36.84375 C 0 38.585938 1.414062 40 3.15625 40 L 9.472656 40 L 9.472656 30.527344 Z M 0 30.527344 "/>
<path style=" stroke:none;fill-rule:nonzero;fill:rgb(98.431373%,73.72549%,1.568627%);fill-opacity:1;" d="M 30.527344 9.472656 L 30.527344 30.527344 L 40 30.527344 L 40 9.472656 L 35.261719 7.367188 Z M 30.527344 9.472656 "/>
<path style=" stroke:none;fill-rule:nonzero;fill:rgb(9.803922%,40.392157%,82.352941%);fill-opacity:1;" d="M 40 9.472656 L 40 3.15625 C 40 1.414062 38.585938 0 36.84375 0 L 30.527344 0 L 30.527344 9.472656 Z M 40 9.472656 "/>
</g>
</svg>
