<?xml version="1.0" encoding="UTF-8"?><svg xmlns="http://www.w3.org/2000/svg" viewBox="0 0 422.55 381.51"><defs><style>.cls-1{letter-spacing:0em;}.cls-2{opacity:.1;}.cls-2,.cls-3{fill:#ef456e;}.cls-4{fill:#f4cba2;}.cls-5{fill:#efac3f;}.cls-6{fill:#ed9a40;}.cls-7,.cls-8{fill:#fff;}.cls-9{fill:#edbb8e;}.cls-10{fill:#c2bedb;}.cls-11{fill:#bad7ff;}.cls-12{fill:#a4c8f4;}.cls-13{fill:#dd3665;}.cls-14{fill:#424060;}.cls-15{fill:#a39ec0;}.cls-16,.cls-17{fill:#55517a;}.cls-18{fill:#5e5c89;}.cls-19{mix-blend-mode:hard-light;opacity:.2;}.cls-20{letter-spacing:-.02em;}.cls-17{font-family:BloggerSans-Medium, 'BloggerSans Medium';font-size:7.22px;font-weight:500;}.cls-8{font-family:Lato-Bold, Lato;font-size:9.02px;font-weight:700;}.cls-21{isolation:isolate;}.cls-22{fill:none;stroke:#fff;stroke-miterlimit:10;stroke-width:.25px;}</style></defs><g class="cls-21"><g id="Layer_2"><g id="OBJECTS"><path class="cls-2" d="m409.6,277.8c-5.66-6.57-12.59-12.04-19.94-16.59-8.13-5.03-18.53-7.73-25.67-14.13-8.22-7.36-7.88-20.29-4.98-30.05,2.95-9.93,8.92-18.74,15.35-26.74,11.87-14.77,26.45-27.77,33.77-45.66,6.54-15.96,4.24-33.1-7.25-46.12-11.91-13.5-29.59-19.39-47.23-19.65-22.08-.32-42.09,8.32-63.55,11.65-11.55,1.79-23.03.84-33.32-5.03-8.77-5.01-15.91-12.35-22.65-19.76-12.92-14.19-25.74-28.29-41.06-39.98C165.24,4.52,128.62-7.79,94.55,5.54c-14.98,5.86-29.34,17.35-34.8,32.95-6.91,19.76,5.92,39.79,15.95,55.91,11.12,17.88,24.16,38.05,19.87,60.19-3.55,18.34-19.28,27.47-35.36,33.65-13.92,5.35-28.94,9.4-40.8,18.84C5.76,217.93-1.7,235.79.33,253.13c2.15,18.41,13.8,34.02,26.58,46.73,12.6,12.52,31.48,27.79,26.89,47.94-2.3,10.09-9.93,18.27-19.72,21.43-.29.09-.3.44-.13.6-.43-.16-.82.2-.97.56-.2.48-.03,1.15.1,1.64.08.27.2.51.35.74h355.54c1.71-3.87,4.96-6.64,8.04-9.61,3.37-3.24,6.5-6.71,9.35-10.43,6.06-7.89,11.03-16.83,13.92-26.38,5.3-17.51,1.17-34.78-10.68-48.54Z"/><ellipse class="cls-10" cx="211.27" cy="372.76" rx="199.23" ry="8.75"/><path class="cls-3" d="m340.86,112.07c-3.04,2.3-6.08,4.16-9.67,5.55-2.2.86-4.63,1.33-6.74,2.38-2.44,1.21-3.7,2.79-4.37,4.91-.09-6.18-.56-12.36-1.34-18.5,2.19,1.82,6.34.34,8.52-.92,3.41-1.97,5.54-5.33,5.38-9.29-.01-.33-.39-.57-.68-.37-1.95,1.29-3.99,2.3-6.24,2.98-1.47.44-2.98.71-4.34,1.45-1.5.82-2.56,1.95-2.9,3.52-.03.01-.06.02-.08.03-.59-4.09-1.35-8.15-2.23-12.19,4.98,1.86,9.12-3.42,8.01-8.18-.08-.36-.65-.54-.89-.22-1.82,2.47-6.66,2.87-7.68,5.89-.4-1.71-.83-3.42-1.29-5.11-.09-.35-.62-.2-.54.16.75,3.4,1.41,6.82,1.98,10.26-.76-.77-1.8-1.28-2.97-1.42-1.74-.21-3.06.46-4.71.67-1.69.22-2.93-.95-4.59-.47-.54.15-.75.68-.66,1.19.5,2.79,2.55,5.43,5.25,6.42,3.01,1.1,5.9-.5,8.33-2.18.7,4.87,1.21,9.77,1.52,14.69-1.92-3.13-5.59-3.92-9.2-4.65-1.66-.34-2.85-.94-4.24-1.89-.45-.31-.74-.66-1.28-.65-2.36.02-1.6,3.48-1.27,4.88.38,1.61.91,3.25,1.79,4.66,1.13,1.82,2.93,3.09,5.03,3.51,3.33.67,7.38-.3,9.31-3.31.26,5.3.29,10.61.06,15.91-.09-.1-.18-.2-.27-.3-.67-1.19-1.99-1.35-3.37-1.19-1.36.15-2.35.23-3.68-.25-.72-.26-1.45-.61-2.22-.4-.17.05-.26.2-.27.36-.18,2.44,2.15,5.02,4.34,5.75,2.1.69,3.85.05,5.32-1.19-.14,2.38-.33,4.77-.58,7.14-.98-1.29-2.49-1.86-4.27-1.99-2.15-.15-4.14.14-6.25-.5-2.11-.64-4.16-1.66-6.21-2.47-.4-.16-.91.13-.77.61.97,3.28,2.56,8.85,5.97,10.4,1.9.87,4.4.43,6.22-.43,1.95-.92,3.19-3.05,5.13-3.84-.79,6.79-2.01,13.53-3.72,20.18-.03.13-.07.25-.1.38-.35-1.46-1.25-2.77-2.6-3.55-1.34-.78-2.94-1.06-4.34-1.71-1.38-.64-2.62-1.46-4.06-1.96-.31-.11-.63.14-.71.42-.92,3.16-1.57,8.36,2.06,10.18,2.24,1.13,6.59,1.31,8.86-.47-1.21,4.24-2.62,8.41-4.22,12.5-.73-2.2-2.33-3.91-4.42-5.38-2.2-1.55-4.73-2.54-6.84-4.24-3.57-2.87-4.96-6.66-6.34-10.9-.14-.44-.75-.52-.98-.11-3.9,6.71-5.83,16.33-1.12,23.21,3.76,5.49,13.16,3.37,18.6.19-2.64,6.34-5.74,12.5-9.26,18.44-1.93,3.26-4,6.4-6.15,9.49.65-3.93-2.84-5.88-6.06-7.61-3.55-1.91-5.89-4.27-7.68-7.95-1.44-2.96-2.09-6.7-4.02-9.38-.13-.18-.35-.36-.59-.32-3.6.51-5.92,7.2-6.99,10.2-1.51,4.23-1.35,8.58.79,12.57,4.04,7.54,13.51,9.79,21.23,7.16-4.94,6.8-10.13,13.42-14.93,20.35-.67.96.88,2.08,1.65,1.21,8.94-10.2,17.21-21.26,24.12-33.08.31,7.93,9.13,13.58,16.6,12.29,7.74-1.34,16.18-10.37,17.75-17.92.1-.47-.32-.93-.81-.79-3.29.99-6.67,2.18-10.04,2.81-4.88.9-7.44-.83-11.98-1.5-3.37-.49-6.57-.08-9.41,1.41,4.71-8.52,8.69-17.42,11.68-26.65,5.79,2.63,12.59,2.45,17.94-1.22,5.04-3.45,10.35-11.62,9.74-17.86-.04-.45-.49-.75-.91-.5-6.27,3.71-12.94,4.56-19.45,7.39-2.02.88-3.66,2.04-4.88,3.61.08-.32.18-.65.26-.97,1.12-4.65,2-9.34,2.67-14.06,7.83,8.7,19.26.35,21.3-9.11.1-.48-.43-.95-.88-.65-2.76,1.85-5.54,3.12-8.92,2.73-1.46-.17-2.68-.44-4.18-.21-2.86.44-5.2,1.98-6.92,4.17.77-6.33,1.15-12.69,1.15-19.06.07.08.15.15.26.21,4.37,2.34,9.76,1.09,13.84-1.49,4.19-2.64,6.16-8.73,7.58-13.22.15-.49-.49-1-.92-.68Z"/><path class="cls-15" d="m344.27,158.14c-2.61,2.65-6.13,6.27-6.42,10.17-.29,3.8.83,8.02,4.07,10.2.08.06.16.08.24.1-4.44,2.35-8.74,4.96-12.86,7.83.9-2.01,1.1-4.21.35-6.37-.39-1.13-1.03-1.88-1.69-2.84-1.51-2.21-1.65-4.62-1.38-7.23.04-.42-.48-.62-.78-.37-5.84,4.92-7.44,15.96,1.51,18.21-3.04,2.21-5.99,4.55-8.81,7.05-.2.18-.39.36-.58.54.65-1.43.85-3.01.72-4.74-.43-5.58-2.29-10.55-2.02-16.29.02-.38-.36-.58-.68-.45-4.58,1.88-8.31,8.6-8.86,13.39-.58,5.09,1.8,9.89,5.77,12.96-5.34,5.49-10.07,11.55-14.27,17.98,0-2.53-.9-4.92-2.49-7.09-2.14-2.92-4.3-4.07-5.47-7.8-.81-2.59-1.22-5.38-1.75-8.04-.08-.4-.55-.52-.85-.27-4.69,3.88-7.87,13.1-5.95,18.99,1.86,5.68,9.05,9.75,14.69,7.04-5.69,9.17-10.35,19.02-14.16,29.02-.33.86,1.03,1.52,1.45.7,3.06-5.91,5.76-11.97,8.68-17.92,1.01,6.36,6.08,12.13,12.83,12.16,3.57.02,6.67-1.48,9.06-4.09,1.7-1.86,5.5-5.94,4.53-8.64-.06-.18-.27-.27-.44-.29-2.58-.36-5.44.57-8.03.66-3.23.11-5.73-.65-8.38-2.42-2.4-1.61-5.04-3.32-7.54-1.41,1.36-2.64,2.79-5.24,4.35-7.79,2.84-4.65,5.99-9.08,9.44-13.26-.21,4.96,1.79,12.3,7,12.89,6.54.75,12.54-4.15,15.77-9.35.2-.32-.08-.71-.44-.65-3.46.6-6.62,1.03-9.94-.4-1.97-.85-3.58-2.24-5.48-3.21-1.8-.91-3.58-1.4-5.39-1.1,2.26-2.63,4.65-5.15,7.16-7.56-.4,2.24,1.33,5.21,2.94,6.35,2.61,1.86,6-.51,7.86-2.32.17-.16.22-.48.03-.65-.87-.82-1.91-1.39-2.86-2.11-.97-.74-1.76-1.75-2.79-2.4-1.04-.65-2.29-.8-3.43-.5.08-.07.15-.14.23-.21,4.01-3.65,8.26-6.99,12.7-10.04.17,1.65-.86,3.3-.79,5,.07,1.58.69,3.49,2,4.5,2.34,1.8,6.81.86,9.45.33.39-.08.41-.54.14-.76-1.33-1.13-2.79-2.18-4.02-3.42-1.22-1.24-1.75-2.74-2.65-4.18-.75-1.19-1.7-2.03-2.96-2.24,1.57-1.05,3.16-2.06,4.77-3.04-.33,1.48-.12,2.94,1.13,4.15,1.31,1.26,3.97,1.93,5.61.91.11-.07.18-.19.15-.32-.14-.61-.65-.99-1.1-1.4-.82-.75-1.14-1.47-1.53-2.47-.4-1.01-1-1.88-2.07-1.91-.1-.02-.2-.05-.3-.08,3.61-2.11,7.32-4.06,11.12-5.83-1.38,2.45-.56,5.63,1.13,7.71,1.07,1.31,2.62,2.09,4.31,2.21,1.31.09,2.65-.14,3.91-.47,1.09-.29,3.79-1.03,2.93-2.68-.19-.37-.55-.45-.93-.65-1.17-.61-2.03-1.22-2.88-2.26-1.84-2.25-3.75-4.52-6.64-4.7,3.54-1.6,7.15-3.05,10.8-4.36-.28,2.32-.32,4.92,1.56,6.61,1.69,1.52,4.29,1.97,6.42,1.29.39-.13.68-.47.59-.9-.28-1.34-1.55-1.77-2.03-3.03-.46-1.23-.48-2.4-1.27-3.53-.53-.76-1.27-1.3-2.09-1.55,2.61-.87,5.24-1.68,7.89-2.41.27-.08.19-.5-.09-.43-1.35.31-2.7.64-4.04.99,1.73-1.82.22-5.35,1.27-7.53.14-.28-.2-.61-.48-.54-3.73.98-5.88,5.82-2.75,8.6-3.14.87-6.26,1.84-9.33,2.94,0-.02,0-.05,0-.07.97-.82,1.37-1.97,1.38-3.32.01-1.22-.35-2.37-.59-3.56-.36-1.81-.41-3.62-.23-5.45.03-.27-.28-.45-.51-.33-2.82,1.35-4.38,4.08-4.49,7.18-.07,1.98.43,5.42,2.5,6.28-4.57,1.72-9.05,3.67-13.39,5.89,1.24-1.25,1.87-2.71,1.81-4.86-.05-1.86-.61-3.73-.83-5.58-.35-3.01-.17-5.82.3-8.79.07-.42-.53-.68-.81-.39Z"/><path class="cls-5" d="m69.09,200.21c1.42,4.49,3.39,10.59,7.58,13.22,4.09,2.58,9.47,3.83,13.84,1.49.11-.06.19-.13.26-.21,0,6.37.38,12.73,1.15,19.06-1.72-2.2-4.06-3.73-6.92-4.17-1.5-.23-2.72.04-4.18.21-3.37.39-6.16-.89-8.92-2.73-.45-.3-.99.17-.88.65,2.05,9.46,13.47,17.8,21.3,9.11.67,4.72,1.55,9.41,2.67,14.06.08.33.17.65.26.97-1.22-1.57-2.87-2.73-4.88-3.61-6.51-2.83-13.17-3.69-19.45-7.39-.42-.25-.86.06-.91.5-.61,6.25,4.7,14.41,9.74,17.86,5.35,3.67,12.15,3.85,17.94,1.22,2.99,9.23,6.97,18.13,11.68,26.65-2.84-1.5-6.05-1.9-9.41-1.41-4.54.66-7.11,2.4-11.98,1.5-3.38-.63-6.76-1.82-10.04-2.81-.49-.15-.91.31-.81.79,1.57,7.56,10.01,16.59,17.75,17.92,7.47,1.29,16.29-4.36,16.6-12.29,6.9,11.81,15.17,22.88,24.12,33.08.77.87,2.32-.25,1.65-1.21-4.8-6.93-9.99-13.55-14.93-20.35,7.72,2.63,17.2.38,21.23-7.16,2.14-3.99,2.3-8.35.79-12.57-1.07-3-3.39-9.69-6.99-10.2-.24-.03-.46.15-.59.32-1.93,2.68-2.58,6.43-4.02,9.38-1.79,3.68-4.13,6.04-7.68,7.95-3.22,1.73-6.71,3.68-6.06,7.61-2.15-3.09-4.22-6.24-6.15-9.49-3.52-5.94-6.62-12.1-9.26-18.44,5.44,3.17,14.84,5.29,18.6-.19,4.72-6.89,2.79-16.51-1.12-23.21-.24-.41-.84-.33-.98.11-1.38,4.23-2.77,8.02-6.34,10.9-2.11,1.7-4.64,2.68-6.84,4.24-2.09,1.47-3.69,3.19-4.42,5.38-1.6-4.09-3.01-8.26-4.22-12.5,2.28,1.78,6.62,1.6,8.86.47,3.63-1.83,2.98-7.02,2.06-10.18-.08-.29-.41-.53-.71-.42-1.44.49-2.69,1.32-4.06,1.96-1.4.65-3,.93-4.34,1.71-1.35.78-2.25,2.09-2.6,3.55-.03-.13-.07-.25-.1-.38-1.71-6.65-2.93-13.39-3.72-20.18,1.94.79,3.19,2.92,5.13,3.84,1.82.86,4.32,1.29,6.22.43,3.41-1.55,5-7.12,5.97-10.4.14-.48-.37-.77-.77-.61-2.05.82-4.1,1.84-6.21,2.47-2.11.64-4.11.34-6.25.5-1.78.13-3.29.7-4.27,1.99-.25-2.38-.44-4.76-.58-7.14,1.46,1.24,3.22,1.88,5.32,1.19,2.19-.72,4.52-3.31,4.34-5.75-.01-.16-.1-.31-.27-.36-.77-.21-1.49.14-2.22.4-1.33.47-2.32.4-3.68.25-1.37-.16-2.69,0-3.37,1.19-.09.1-.18.2-.27.3-.23-5.3-.2-10.61.06-15.91,1.93,3,5.98,3.97,9.31,3.31,2.1-.42,3.9-1.69,5.03-3.51.88-1.41,1.41-3.05,1.79-4.66.33-1.39,1.1-4.86-1.27-4.88-.53,0-.83.35-1.28.65-1.38.95-2.57,1.55-4.24,1.89-3.61.73-7.28,1.52-9.2,4.65.31-4.91.82-9.81,1.52-14.69,2.43,1.68,5.33,3.28,8.33,2.18,2.71-.99,4.75-3.63,5.25-6.42.09-.51-.12-1.03-.66-1.19-1.66-.48-2.9.69-4.59.47-1.65-.21-2.97-.89-4.71-.67-1.17.14-2.21.65-2.97,1.42.57-3.44,1.23-6.86,1.98-10.26.08-.35-.45-.51-.54-.16-.46,1.7-.88,3.4-1.29,5.11-1.01-3.02-5.86-3.42-7.68-5.89-.24-.32-.8-.14-.89.22-1.11,4.75,3.03,10.04,8.01,8.18-.89,4.04-1.64,8.1-2.23,12.19-.03-.01-.05-.02-.08-.03-.34-1.57-1.4-2.7-2.9-3.52-1.36-.74-2.87-1.01-4.34-1.45-2.25-.67-4.29-1.69-6.24-2.98-.29-.19-.66.05-.68.37-.16,3.96,1.97,7.32,5.38,9.29,2.17,1.25,6.32,2.73,8.52.92-.79,6.14-1.25,12.31-1.34,18.5-.67-2.12-1.93-3.71-4.37-4.91-2.12-1.05-4.54-1.52-6.74-2.38-3.58-1.39-6.62-3.26-9.67-5.55-.43-.32-1.07.19-.92.68Z"/><path class="cls-3" d="m79.58,255.88c.48,2.97.65,5.78.3,8.79-.22,1.85-.78,3.72-.83,5.58-.06,2.15.58,3.61,1.81,4.86-4.34-2.22-8.82-4.17-13.39-5.89,2.08-.86,2.58-4.3,2.5-6.28-.11-3.11-1.67-5.83-4.49-7.18-.23-.11-.54.06-.51.33.18,1.84.13,3.64-.23,5.45-.24,1.19-.6,2.34-.59,3.56.02,1.35.42,2.5,1.38,3.32,0,.02,0,.05,0,.07-3.07-1.1-6.18-2.07-9.33-2.94,3.13-2.79.98-7.62-2.75-8.6-.28-.07-.62.25-.48.54,1.05,2.18-.46,5.7,1.27,7.53-1.34-.35-2.69-.68-4.04-.99-.28-.06-.36.36-.09.43,2.65.73,5.28,1.54,7.89,2.41-.82.24-1.56.78-2.09,1.55-.79,1.13-.81,2.3-1.27,3.53-.47,1.26-1.75,1.69-2.03,3.03-.09.43.19.77.59.9,2.13.68,4.72.23,6.42-1.29,1.88-1.69,1.83-4.3,1.56-6.61,3.66,1.31,7.26,2.76,10.8,4.36-2.89.18-4.8,2.45-6.64,4.7-.85,1.04-1.71,1.64-2.88,2.26-.38.2-.73.28-.93.65-.86,1.65,1.84,2.4,2.93,2.68,1.26.33,2.6.56,3.91.47,1.69-.12,3.24-.9,4.31-2.21,1.7-2.08,2.51-5.26,1.13-7.71,3.79,1.77,7.51,3.72,11.12,5.83-.1.03-.2.05-.3.08-1.08.03-1.68.89-2.07,1.91-.39,1-.71,1.72-1.53,2.47-.45.41-.96.79-1.1,1.4-.03.13.04.25.15.32,1.64,1.02,4.3.35,5.61-.91,1.26-1.21,1.46-2.67,1.13-4.15,1.61.98,3.2,1.99,4.77,3.04-1.26.21-2.22,1.05-2.96,2.24-.9,1.44-1.43,2.94-2.65,4.18-1.22,1.24-2.69,2.29-4.02,3.42-.26.22-.25.68.14.76,2.64.53,7.11,1.48,9.45-.33,1.31-1.01,1.93-2.91,2-4.5.08-1.7-.95-3.35-.79-5,4.44,3.05,8.7,6.39,12.7,10.04.08.07.15.14.23.21-1.15-.29-2.39-.15-3.43.5-1.03.65-1.82,1.66-2.79,2.4-.95.72-1.99,1.29-2.86,2.11-.19.18-.14.49.03.65,1.86,1.81,5.25,4.18,7.86,2.32,1.61-1.15,3.34-4.11,2.94-6.35,2.51,2.41,4.89,4.93,7.16,7.56-1.8-.3-3.59.18-5.39,1.1-1.9.96-3.52,2.36-5.48,3.21-3.32,1.43-6.48,1-9.94.4-.36-.06-.64.33-.44.65,3.24,5.2,9.23,10.09,15.77,9.35,5.21-.59,7.21-7.93,7-12.89,3.45,4.18,6.6,8.61,9.44,13.26,1.56,2.55,2.99,5.15,4.35,7.79-2.5-1.9-5.14-.19-7.54,1.41-2.65,1.77-5.15,2.53-8.38,2.42-2.59-.09-5.45-1.01-8.03-.66-.17.02-.38.11-.44.29-.97,2.7,2.84,6.78,4.53,8.64,2.39,2.61,5.49,4.11,9.06,4.09,6.75-.03,11.81-5.81,12.83-12.16,2.92,5.96,5.62,12.02,8.68,17.92.43.82,1.78.15,1.45-.7-3.81-10-8.47-19.85-14.16-29.02,5.64,2.71,12.84-1.36,14.69-7.04,1.92-5.89-1.26-15.11-5.95-18.99-.29-.24-.77-.12-.85.28-.52,2.66-.94,5.45-1.75,8.04-1.17,3.73-3.33,4.88-5.47,7.8-1.59,2.17-2.48,4.55-2.49,7.09-4.21-6.43-8.93-12.49-14.27-17.98,3.97-3.07,6.35-7.87,5.77-12.96-.55-4.79-4.28-11.51-8.86-13.39-.33-.13-.7.07-.68.45.27,5.74-1.59,10.7-2.02,16.29-.13,1.73.07,3.3.72,4.74-.2-.18-.38-.36-.58-.54-2.83-2.5-5.77-4.85-8.81-7.05,8.95-2.25,7.35-13.3,1.51-18.21-.3-.25-.82-.05-.78.37.27,2.6.13,5.02-1.38,7.23-.66.96-1.3,1.71-1.69,2.84-.75,2.16-.54,4.36.35,6.37-4.13-2.87-8.42-5.49-12.86-7.83.08-.02.16-.05.24-.1,3.24-2.18,4.36-6.4,4.07-10.2-.29-3.89-3.81-7.52-6.42-10.17-.28-.29-.88-.03-.81.39Z"/><path class="cls-11" d="m304.96,300.53c-.37-1.38-.88-3.25-2.11-4.11-1.2-.84-2.81-1.29-4.17-.65-.03.02-.06.04-.08.06.09-1.93.06-3.86-.08-5.79.49.69,1.18,1.19,2.04,1.36.45.09.82.03,1.27,0,1.03-.07,1.85.36,2.66.95.13.1.3-.04.28-.18-.49-2.89-3.83-5.58-6.32-3.06-.14-1.44-.34-2.87-.61-4.29-.02-.1-.04-.2-.06-.3.35.49.83.87,1.43,1.16,1.93.95,3.94,1.3,5.78,2.51.12.08.26,0,.28-.14.27-1.88-1.22-4.43-2.7-5.55-1.57-1.19-3.63-1.34-5.42-.62-.77-2.84-1.86-5.59-3.16-8.23.84.49,1.8.66,2.83.56,1.38-.14,2.19-.63,3.65-.28,1.01.24,2.02.65,3,.99.15.05.28-.08.26-.23-.37-2.31-2.8-5.16-5.12-5.68-2.24-.5-5,1.09-5.2,3.49-1.92-3.67-4.27-7.14-6.84-10.36-.22-.28-.7.04-.52.34,1.36,2.17,2.83,4.24,4.23,6.37-2.3-.91-5.2-.36-6.53,1.87-.7,1.18-.81,2.49-.42,3.8.28.92.89,2.98,1.97,3.19.07.01.14-.04.18-.09.62-.78.87-1.91,1.35-2.78.59-1.09,1.33-1.77,2.44-2.3,1-.48,2.08-1.02,1.94-2.22.61.97,1.19,1.95,1.73,2.96.98,1.85,1.83,3.76,2.54,5.71-1.6-1.04-4.42-1.81-5.63-.2-1.53,2.02-1.08,4.96.01,7.05.07.13.25.11.3-.02.48-1.26.95-2.39,2.07-3.21.66-.49,1.44-.75,2.13-1.19.65-.42,1.16-.91,1.42-1.57.43,1.26.8,2.54,1.1,3.84-.66-.57-1.98-.58-2.68-.27-1.13.5-1,2.08-.77,3.05.02.09.12.17.21.14.44-.13.83-.36,1.26-.53.43-.18.92-.24,1.34-.46.42-.22.71-.6.84-1.04,0,.04.02.08.03.12.42,2.04.7,4.1.84,6.16-.58-.27-.92-.93-1.5-1.24-.54-.29-1.29-.45-1.88-.22-1.05.42-1.62,2.09-1.95,3.06-.05.14.1.24.22.2.63-.22,1.27-.5,1.92-.66.65-.16,1.25-.05,1.9-.06.54-.01,1.01-.17,1.32-.54.04.72.06,1.45.07,2.17-.43-.4-.95-.62-1.59-.44-.67.19-1.41.94-1.4,1.68,0,.05.03.1.08.11.23.07.45-.02.68-.09.41-.13.71-.09,1.12-.02.41.07.82.04,1.04-.31.03-.03.06-.06.09-.09,0,1.61-.09,3.22-.24,4.82-.54-.94-1.75-1.29-2.77-1.13-.64.1-1.2.46-1.57.99-.28.41-.47.9-.61,1.39-.12.42-.4,1.46.32,1.49.16,0,.26-.09.4-.18.43-.27.8-.43,1.31-.51,1.1-.17,2.23-.36,2.85-1.28-.16,1.48-.39,2.96-.67,4.43-.71-.54-1.57-1.07-2.49-.78-.83.26-1.49,1.03-1.68,1.87-.03.15.02.31.18.37.5.17.89-.17,1.4-.08.5.09.89.31,1.42.27.36-.03.68-.16.92-.39-.22,1.03-.47,2.06-.74,3.08-.03.11.13.16.16.05.16-.51.32-1.02.46-1.53.26.93,1.73,1.12,2.24,1.89.07.1.24.05.27-.05.4-1.42-.78-3.08-2.31-2.59.33-1.21.61-2.43.85-3.66,0,0,.02,0,.02.01.08.48.38.84.83,1.11.4.24.85.35,1.29.5.67.24,1.28.57,1.85.99.09.06.2,0,.21-.1.1-1.2-.49-2.25-1.5-2.89-.64-.41-1.88-.92-2.57-.4.32-1.85.55-3.71.67-5.58.17.65.53,1.15,1.25,1.55.63.35,1.35.53,2.01.82,1.06.47,1.96,1.08,2.85,1.82.13.1.33-.04.29-.19Z"/><path class="cls-5" d="m385.61,190.79c-21.99,8.18-46.84,5.07-68.04,15.79-8.22,4.16-15.63,10.13-21.27,17.42-6.63,8.56-9.61,17.96-11.2,28.55-.01.09,0,.17.04.24-.65,1.82-1.06,3.66-1.24,5.67-.07.72.72,1.15,1.33,1.02,13.19-2.9,26.64-3.34,40.05-4.53,11.1-.99,23.26-1.96,31.74-10.03,5.2-4.95,9.59-10.74,12.97-17.07,3.65-6.82,5.37-14.35,8.68-21.3,2.4-5.05,5.92-9.53,7.78-14.93.16-.47-.36-1.01-.83-.83Z"/><path class="cls-15" d="m369,201.34c-19.24,8.74-37.47,19.57-54.84,31.6-7.74,5.36-15.32,11.07-22.44,17.24-2.1,1.82-4.21,3.65-6.26,5.53-1.06.98-2.11,1.98-3.14,3-.87.87-2.12,1.69-1.08,2.99.32.4.92.83,1.46.7.48-.11.59-.53.87-.89.95-1.19,2.16-2.25,3.24-3.32,2.17-2.14,4.42-4.2,6.73-6.19,7.66-6.64,15.87-12.63,24.13-18.5,16.47-11.72,33.92-21.93,51.73-31.47.46-.25.06-.9-.4-.69Z"/><path class="cls-6" d="m386.36,191.09c-4.83,4.66-9.22,9.83-12.81,15.03-7.37,10.68-12.58,26.08-24.45,32.66-11.92,6.61-26.71,5.01-39.7,7.77-9.45,2.01-17.83,6.35-24.6,12.94.14.02.29.03.43,0,13.19-2.9,26.64-3.34,40.05-4.53,11.1-.99,23.26-1.96,31.74-10.03,5.2-4.95,9.59-10.74,12.97-17.07,3.65-6.82,5.37-14.35,8.68-21.3,2.4-5.05,5.92-9.53,7.78-14.93.06-.18.02-.37-.08-.53Z"/><path class="cls-3" d="m358.2,282.59c-12.83-7.52-21.27-20.97-35.03-27.08-5.34-2.37-11.24-3.61-17.08-3.46-6.86.18-12.67,2.48-18.51,5.95-.05.03-.08.07-.1.12-1.15.41-2.22.95-3.29,1.66-.38.26-.27.82.04,1.06,6.71,5.31,12.32,11.74,18.28,17.85,4.94,5.05,10.29,10.64,17.65,11.56,4.51.57,9.12.4,13.58-.47,4.81-.94,9.2-3.12,13.94-4.28,3.44-.84,7.05-.91,10.45-2.16.29-.11.35-.58.08-.74Z"/><path class="cls-14" d="m346.35,278.66c-12-5.94-24.63-10.56-37.5-14.26-5.74-1.65-11.58-3.09-17.46-4.11-1.74-.3-3.48-.61-5.23-.86-.91-.13-1.82-.24-2.73-.34-.77-.08-1.68-.36-1.9.67-.07.31-.04.78.24,1,.25.19.5.08.79.07.96-.01,1.97.16,2.93.26,1.92.21,3.83.49,5.74.82,6.33,1.1,12.57,2.73,18.76,4.43,12.36,3.39,24.37,7.87,36.19,12.79.31.13.46-.33.18-.47Z"/><path class="cls-13" d="m358.35,283.08c-4.23-.51-8.52-.59-12.51-.26-8.2.66-17.85,4.28-25.84,1.09-8.02-3.2-13.17-11.11-19.73-16.38-4.77-3.83-10.27-6.21-16.22-6.89.05.08.1.15.17.21,6.71,5.31,12.32,11.74,18.28,17.85,4.94,5.05,10.29,10.64,17.65,11.56,4.51.57,9.12.4,13.58-.47,4.81-.94,9.2-3.12,13.94-4.28,3.44-.84,7.05-.91,10.45-2.16.11-.04.19-.14.23-.25Z"/><path class="cls-11" d="m54.8,306.54c1.84,3.97,4.88,7.1,7.11,10.76,3.07,5.04,4.98,10.64,8.29,15.55,3.08,4.55,6.88,8.62,11.23,11.98,7.09,5.48,16.44,5.26,24.97,5.14,10.31-.15,20.59-.88,30.87.3.47.05,1.04-.34.94-.88-.3-1.52-.76-2.89-1.4-4.23.02-.06.03-.12,0-.19-2.05-7.94-5.06-14.87-10.78-20.87-4.87-5.11-10.99-9.07-17.58-11.59-17-6.5-35.69-2.17-53.09-6.67-.38-.1-.73.36-.57.7Z"/><path class="cls-14" d="m68.86,312.57c15.35,5.14,30.1,11.95,44.27,19.75,6.32,3.48,12.55,7.23,18.46,11.37,1.75,1.22,3.5,2.45,5.21,3.72.89.66,1.77,1.34,2.63,2.04.73.59,1.75,1.12,1.06,2.2-.21.33-.63.7-1.06.65-.37-.05-.49-.36-.74-.61-.81-.83-1.82-1.55-2.73-2.27-1.82-1.46-3.7-2.85-5.61-4.19-6.36-4.46-13.09-8.37-19.84-12.2-13.48-7.63-27.58-14.03-41.9-19.9-.37-.15-.11-.68.25-.56Z"/><path class="cls-12" d="m54.82,306.13c4.05,3.17,7.8,6.76,10.94,10.44,6.46,7.56,11.64,18.88,21.21,22.96,9.6,4.09,20.75,1.71,30.86,2.79,7.36.78,14.09,3.43,19.77,7.92-.11.03-.22.04-.33.03-10.28-1.17-20.56-.44-30.87-.3-8.53.12-17.88.34-24.97-5.14-4.35-3.36-8.15-7.43-11.23-11.98-3.32-4.91-5.22-10.51-8.29-15.55-2.23-3.66-5.26-6.8-7.11-10.76-.06-.13-.05-.28.02-.41Z"/><path class="cls-3" d="m76.57,354.77c2.24,1.64,4.88,2.45,7.24,3.79,3.25,1.85,6.02,4.38,9.37,6.09,3.1,1.58,6.46,2.67,9.9,3.21,5.62.87,10.73-2.12,15.43-4.8,5.68-3.24,11.16-6.8,17.22-9.3.28-.12.48-.51.25-.77-.63-.75-1.31-1.37-2.07-1.92,0-.04-.02-.07-.05-.11-3.57-3.78-7.37-6.7-12.38-8.28-4.27-1.34-8.88-1.67-13.31-1.05-11.43,1.6-20.47,9.74-31.5,12.57-.24.06-.29.42-.1.56Z"/><path class="cls-14" d="m86.22,353.81c10.09-1.85,20.37-2.59,30.62-2.61,4.57,0,9.18.16,13.73.65,1.34.14,2.69.29,4.03.47.7.1,1.39.2,2.08.33.59.1,1.31.09,1.26.89-.02.25-.14.58-.39.68-.22.09-.38-.05-.59-.11-.71-.21-1.49-.3-2.21-.42-1.46-.25-2.93-.45-4.4-.6-4.89-.52-9.83-.63-14.75-.69-9.82-.11-19.6.67-29.35,1.8-.25.03-.27-.34-.03-.39Z"/><path class="cls-13" d="m76.45,354.54c3.22.52,6.4,1.36,9.27,2.44,5.9,2.21,12.25,6.91,18.8,6.24,6.58-.67,12.04-5.41,17.98-7.91,4.32-1.82,8.87-2.41,13.4-1.66-.05.05-.11.09-.17.12-6.06,2.5-11.55,6.06-17.22,9.3-4.7,2.68-9.82,5.67-15.43,4.8-3.44-.53-6.8-1.62-9.9-3.21-3.34-1.71-6.12-4.23-9.37-6.09-2.36-1.35-5-2.16-7.24-3.79-.08-.06-.11-.14-.12-.23Z"/><rect class="cls-18" x="133.05" y="71.05" width="155.05" height="301.87" rx="20.25" ry="20.25"/><path class="cls-16" d="m266.62,74.44h-47.06v.07c0,.53-.46,1.16-1.36,1.16h-14.72c-.98,0-1.45-.63-1.45-1.16v-.07h-47.51c-9.79,0-17.73,7.66-17.73,17.11v260.89c0,9.45,7.94,17.11,17.73,17.11h112.1c9.79,0,17.73-7.66,17.73-17.11V91.55c0-9.45-7.94-17.11-17.73-17.11Z"/><path class="cls-11" d="m281.5,351.18V94.35c0-9.48-7.96-17.16-17.79-17.16h-41.49c-2.02,0-3.77,1.54-3.75,3.5.04,5.38-5.69,9.48-11.57,6.87-2.72-1.21-4.16-3.98-4.21-6.87-.03-1.94-1.67-3.49-3.68-3.49h-42.84c-9.12,0-16.51,7.13-16.51,15.93v257.52c0,9.04,7.6,16.37,16.97,16.37h108.47c9.06,0,16.41-7.09,16.41-15.84Z"/><rect class="cls-3" x="240.97" y="169.8" width="20.26" height="29.05"/><line class="cls-22" x1="159.91" y1="105.86" x2="159.91" y2="256.94"/><line class="cls-22" x1="281.5" y1="140.75" x2="139.65" y2="140.75"/><line class="cls-22" x1="281.5" y1="105.86" x2="139.65" y2="105.86"/><line class="cls-22" x1="281.5" y1="169.8" x2="139.65" y2="169.8"/><line class="cls-22" x1="281.5" y1="198.84" x2="139.65" y2="198.84"/><line class="cls-22" x1="281.5" y1="227.89" x2="139.65" y2="227.89"/><line class="cls-22" x1="281.5" y1="256.94" x2="139.65" y2="256.94"/><line class="cls-22" x1="180.17" y1="105.86" x2="180.17" y2="256.94"/><line class="cls-22" x1="200.44" y1="105.86" x2="200.44" y2="256.94"/><line class="cls-22" x1="220.7" y1="105.86" x2="220.7" y2="256.94"/><line class="cls-22" x1="240.97" y1="105.86" x2="240.97" y2="256.94"/><line class="cls-22" x1="261.23" y1="105.86" x2="261.23" y2="256.94"/><text class="cls-17" transform="translate(152.27 114.82)"><tspan x="0" y="0">1</tspan></text><text class="cls-17" transform="translate(172.52 114.82)"><tspan x="0" y="0">2</tspan></text><text class="cls-17" transform="translate(192.9 114.82)"><tspan x="0" y="0">3</tspan></text><text class="cls-17" transform="translate(213.05 114.82)"><tspan x="0" y="0">4</tspan></text><text class="cls-17" transform="translate(233.45 114.82)"><tspan x="0" y="0">5</tspan></text><text class="cls-17" transform="translate(253.61 114.82)"><tspan x="0" y="0">6</tspan></text><text class="cls-17" transform="translate(274.03 114.82)"><tspan x="0" y="0">7</tspan></text><text class="cls-17" transform="translate(152.27 149.72)"><tspan x="0" y="0">8</tspan></text><text class="cls-17" transform="translate(172.52 149.72)"><tspan x="0" y="0">9</tspan></text><text class="cls-17" transform="translate(191.05 149.72)"><tspan x="0" y="0">10</tspan></text><text class="cls-17" transform="translate(211.2 149.72)"><tspan x="0" y="0">11</tspan></text><text class="cls-17" transform="translate(231.6 149.72)"><tspan x="0" y="0">12</tspan></text><text class="cls-17" transform="translate(251.76 149.72)"><tspan x="0" y="0">13</tspan></text><text class="cls-17" transform="translate(272.18 149.72)"><tspan x="0" y="0">14</tspan></text><text class="cls-17" transform="translate(150.42 178.57)"><tspan x="0" y="0">15</tspan></text><text class="cls-17" transform="translate(170.67 178.57)"><tspan x="0" y="0">16</tspan></text><text class="cls-17" transform="translate(191.05 178.57)"><tspan x="0" y="0">17</tspan></text><text class="cls-17" transform="translate(211.2 178.57)"><tspan x="0" y="0">18</tspan></text><text class="cls-17" transform="translate(231.6 178.57)"><tspan x="0" y="0">19</tspan></text><text class="cls-17" transform="translate(251.76 178.57)"><tspan x="0" y="0">20</tspan></text><text class="cls-17" transform="translate(272.18 178.57)"><tspan x="0" y="0">21</tspan></text><text class="cls-17" transform="translate(150.42 207.34)"><tspan x="0" y="0">22</tspan></text><text class="cls-17" transform="translate(170.67 207.34)"><tspan x="0" y="0">23</tspan></text><text class="cls-17" transform="translate(191.05 207.34)"><tspan x="0" y="0">24</tspan></text><text class="cls-17" transform="translate(150.42 236.5)"><tspan x="0" y="0">29</tspan></text><text class="cls-17" transform="translate(170.67 236.5)"><tspan x="0" y="0">30</tspan></text><text class="cls-17" transform="translate(211.2 207.34)"><tspan x="0" y="0">25</tspan></text><text class="cls-17" transform="translate(231.6 207.34)"><tspan x="0" y="0">26</tspan></text><text class="cls-17" transform="translate(251.76 207.34)"><tspan x="0" y="0">27</tspan></text><text class="cls-17" transform="translate(272.18 207.34)"><tspan x="0" y="0">28</tspan></text><circle class="cls-18" cx="210.57" cy="82.4" r="3.48"/><circle class="cls-16" cx="210.57" cy="82.4" r="2.7"/><circle class="cls-11" cx="210.57" cy="82.4" r=".66"/><rect class="cls-15" x="202.64" y="73.58" width="16.32" height="1.98" rx=".73" ry=".73"/><path class="cls-15" d="m289.5,171.85c0-1.1-.52-2.13-1.41-2.78h0v45.88h0c.88-.65,1.41-1.68,1.41-2.78v-40.32Z"/><path class="cls-15" d="m289.5,129.84c0-1.1-.52-2.13-1.41-2.78h0v20.54h0c.88-.65,1.41-1.68,1.41-2.78v-14.99Z"/><text class="cls-8" transform="translate(189.39 100.74)"><tspan x="0" y="0">OC</tspan><tspan class="cls-20" x="13.25" y="0">T</tspan><tspan class="cls-1" x="18.45" y="0">OBER</tspan></text><path class="cls-3" d="m238.84,97.63l-1.69,1.69c-.16.16-.25.38-.25.61h0c0,.76.92,1.14,1.46.6l2.9-2.9c.33-.33.33-.88,0-1.21l-2.9-2.9c-.54-.54-1.46-.16-1.46.6h0c0,.23.09.44.25.61l1.69,1.69c.33.33.33.88,0,1.21Z"/><path class="cls-3" d="m182.3,96.42l1.69-1.69c.16-.16.25-.38.25-.61h0c0-.76-.92-1.14-1.46-.6l-2.9,2.9c-.33.33-.33.88,0,1.21l2.9,2.9c.54.54,1.46.16,1.46-.6h0c0-.23-.09-.44-.25-.61l-1.69-1.69c-.33-.33-.33-.88,0-1.21Z"/><rect class="cls-3" x="149.71" y="264.13" width="57.24" height="42.24"/><polygon class="cls-7" points="191.33 281.63 181.96 281.63 181.96 272.26 174.71 272.26 174.71 281.63 165.34 281.63 165.34 288.87 174.71 288.87 174.71 298.24 181.96 298.24 181.96 288.87 191.33 288.87 191.33 281.63"/><rect class="cls-7" x="216.02" y="264.13" width="57.24" height="42.24"/><rect class="cls-15" x="221.82" y="269.38" width="25.77" height="3.85"/><rect class="cls-10" x="221.82" y="275.94" width="19.46" height="2.82"/><rect class="cls-10" x="221.82" y="281.13" width="38.98" height="2.82"/><rect class="cls-10" x="221.82" y="286.31" width="12.27" height="2.82"/><rect class="cls-10" x="236.66" y="286.31" width="17.75" height="2.82"/><rect class="cls-10" x="256.98" y="286.31" width="11.1" height="2.82"/><rect class="cls-10" x="221.82" y="291.49" width="26.24" height="2.82"/><rect class="cls-10" x="250.72" y="291.49" width="7.38" height="2.82"/><rect class="cls-10" x="221.82" y="296.67" width="19.46" height="2.82"/><rect class="cls-10" x="244.25" y="275.94" width="23.84" height="2.82"/><rect class="cls-15" x="249.91" y="269.38" width="9.01" height="3.85"/><rect class="cls-7" x="149.71" y="315.53" width="57.24" height="42.24"/><rect class="cls-15" x="155.2" y="321.59" width="25.77" height="3.85"/><rect class="cls-10" x="155.2" y="328.15" width="19.46" height="2.82"/><rect class="cls-10" x="155.2" y="333.34" width="38.98" height="2.82"/><rect class="cls-10" x="155.2" y="338.52" width="12.27" height="2.82"/><rect class="cls-10" x="170.04" y="338.52" width="17.75" height="2.82"/><rect class="cls-10" x="190.37" y="338.52" width="11.1" height="2.82"/><rect class="cls-10" x="155.2" y="343.7" width="26.24" height="2.82"/><rect class="cls-10" x="184.1" y="343.7" width="7.38" height="2.82"/><rect class="cls-10" x="155.2" y="348.88" width="19.46" height="2.82"/><rect class="cls-10" x="177.63" y="328.15" width="23.84" height="2.82"/><rect class="cls-15" x="183.29" y="321.59" width="9.01" height="3.85"/><rect class="cls-5" x="216.02" y="315.53" width="57.24" height="42.24"/><g class="cls-19"><path class="cls-7" d="m263.71,77.19h-41.49c-2.02,0-3.77,1.54-3.75,3.5.04,5.38-5.69,9.48-11.57,6.87-2.72-1.21-4.16-3.98-4.21-6.87-.03-1.94-1.67-3.49-3.68-3.49h-36.94l-22.41,22.41v135.38l141.79-141.79c-.62-8.94-8.31-16-17.72-16Z"/><polygon class="cls-7" points="139.65 255.02 139.65 285.86 281.5 144.01 281.5 113.17 139.65 255.02"/><path class="cls-7" d="m139.65,350.64c0,9.04,7.6,16.37,16.97,16.37h57.31l67.58-67.58v-135.38l-141.85,141.85v44.74Z"/><polygon class="cls-7" points="264.8 367.01 281.5 350.31 281.5 319.47 233.96 367.01 264.8 367.01"/></g><path class="cls-4" d="m123.79,260.52c-.28-.32-.49-.58-.81-.86-.89-.76-1.24-2.05-1.5-3.14-.32-1.36-.49-2.76-1.02-4.06-.08-.21-.18-.42-.36-.56-.12-.09-.26-.15-.41-.2-.72-.26-1.34-.53-2.1-.53-.61,0-1.22.07-1.81.21-1.02.23-2.37.72-2.67,1.86-.07.11-.11.23-.12.36-.06,1.86.58,3.65.84,5.47.22,1.57-.14,3.14-.18,4.71-.05,1.59.14,3.19.52,4.73.2.81.6,2.15,1.54,2.35.36.08.65-.06.83-.29.76,1.21,1.69,1.8,2.67.82.3.45.67.82,1.29.86.55.03,1-.21,1.23-.67.51.47,1.07.66,1.62.33.94-.55.68-1.87.47-2.73-.42-1.73-1.87-3.55-1.8-5.39,1.15.51,3.76.83,3.49-1.02-.13-.92-1.17-1.61-1.73-2.25Z"/><path class="cls-9" d="m237.91,184.45c-.08-.09-.15-.18-.22-.27-.21-.26-.4-.55-.63-.79-.54-.63-1.22-.91-2.04-.93-.81-.02-1.64.19-2.35.58-.79.44-1.42,1.16-2.16,1.68-.47.33-1.19.64-1.48,1.16-.62,1.12.39,2.17,1.38,2.53,1.51.55,2.86,0,4.33-.03.63.45,1.42-.06,1.52-.7.67.15,1.23-.26,1.81-.59.2-.11.39-.23.58-.36.14-.1.34-.2.43-.36.08-.14.06-.33-.01-.47-.1-.22-.28-.41-.43-.61-.23-.29-.47-.57-.71-.85Z"/><path class="cls-4" d="m234.74,184.96c.42-.95,1.71-.91,2.58-1.02,1.15-.14,2.29-.32,3.43-.54.76-.15,1.78-.22,2.22-.97.1-.17.14-.39.09-.58-.25-.81-1.43-.84-2.1-.75-1.1.15-2.19.29-3.29.43-2.8.34-5.56.96-8.31,1.55-.26.06-.53.11-.79.17-1.38.3-2.77.58-4.16.82-1.51.26-3.02.54-4.48.99-.99.3-2.52.61-3.02,1.61-.55,1.11.06,4.32,1.62,4.12.06.04.14.08.22.09,2.56.53,5.12-.32,7.61-.82.63-.13,1.39-.34,2.01-.11.24.09.46.23.68.37.46.29,1.12.52,1.67.51.49,0,.94-.22,1.39-.4.84-.33,1.72-.54,2.61-.63.49-.05.98-.06,1.45-.18.71-.17,1.36-.56,1.86-1.09.24-.26.42-.48.44-.83.02-.28-.04-.67-.42-.64-.76.05-1.67.27-2.42.11-.94-.2-1.2-1.29-.91-2.11.01-.04.03-.07.04-.1Z"/><path class="cls-14" d="m162.75,121.39c-.67-1.27-1.71-1.91-3.13-1.44-.68.23-1.36.52-2.03.84,1.98-3.05,3.13-7.39-.79-8.48-2.04-.57-3.77.8-4.95,2.32-.95,1.23-1.9,2.35-2.9,3.38-.22-.95-.61-2.12-1.69-2.33-1.63-.32-3.31,1.33-4.64,2.07-1.23.62-2.41,1.34-3.62,1.98-1.45.77-2.97,1.63-3.72,3.14-.23.46.03.41-.53.43-1.26.04-2.26-.15-3.35.68-1.83,1.4-2.25,4.12-2.33,6.26-.2,5.32,1,10.73,2.27,15.87.3,1.21.56,2.45.9,3.64.48,1.67,1.66,3.06,2.96,4.16,1.11.94,3.11,2.24,4.62,1.67,1.35-.51,2.5-1.72,3.35-2.84,1.88-2.48,2.93-5.5,3.96-8.41.13-.36.26-.73.39-1.09.2-.56-.06-.98-.46-1.19.15-.64.3-1.29.52-1.9.52-1.41,1.26-2.7,2.17-3.88.1-.04.2-.1.29-.19.84-.83,1.63-1.78,2.53-2.53,1.17-.98,2.62-1.48,3.96-2.18,1.46-.76,4.01-1.98,3.25-4.01,2.27-1.31,4.21-3.61,2.95-5.99Z"/><path class="cls-4" d="m155.66,367.09c0,.11.4,4.7.4,4.7h11.58v-5.68l-11.98.98Z"/><polygon class="cls-4" points="126.81 366.14 126.21 371.8 114.63 371.8 115.39 366.27 126.81 366.14"/><polygon class="cls-16" points="157.41 252.21 134.61 252.21 125.43 252.21 114.66 367.67 126.96 367.67 145.64 296.84 149.55 312.65 155.28 367.67 168.24 367.67 168.24 252.21 157.41 252.21"/><path class="cls-14" d="m137.91,255.98c-.53-.15-1.08.16-1.24.69-2.19,7.68-10.17,10.56-12.71,11.29l-.2,2.12c1.53-.35,12.04-3.11,14.83-12.87.15-.53-.16-1.08-.69-1.24Z"/><path class="cls-14" d="m168.24,263.04c-2.77-1.77-5.62-4.5-6.79-8.62-.15-.53-.71-.84-1.24-.69-.53.15-.84.71-.69,1.24,1.52,5.3,5.32,8.54,8.72,10.44v-2.37Z"/><path class="cls-14" d="m149.16,279.1s-.04,0-.06,0c-.27-.03-.47-.28-.44-.56.01-.11,1.31-10.83,1.31-23.21,0-.28.22-.5.5-.5s.5.22.5.5c0,12.45-1.3,23.23-1.32,23.33-.03.25-.25.44-.5.44Z"/><path class="cls-14" d="m150,269.56c-.21,0-.41-.13-.48-.35-.08-.26.06-.54.32-.63.08-.03,1.82-.68,1.94-3.85.13-3.61.27-8.5.27-8.5l1,.03s-.13,4.89-.27,8.51c-.14,3.92-2.53,4.73-2.63,4.77-.05.02-.1.02-.15.02Z"/><path class="cls-14" d="m155.28,367.67h12.88c-3.52,0-5.35-3.88-6.55-6.62-6.58-15.11-3.91-31.64-6.54-47.46-1.43-8.6-3.43-17.11-4.48-25.77-.05-.39-.52-.57-.76-.21-1.93,2.96-3.3,5.96-4.18,9.26l3.9,15.78,5.73,55.02Z"/><path class="cls-3" d="m168.24,170.76l24.12,17.5,31.15-5.47s2.58,3.65,1.22,9.57c0,0-20.83,6.48-30.08,10.23-9.25,3.75-28.11-6.73-28.11-6.73l1.71-25.1Z"/><path class="cls-13" d="m225.09,189.77c-9.1,1.42-17.83,5.45-26.61,7.79-5.83,1.56-12.46.81-17.55-2.59-.19-.13-.38-.27-.57-.4-1.62-1.17-3.09-2.54-4.7-3.72-1.67-1.22-3.58-2.08-5.27-3.28-.2-.14-.4-.29-.6-.43-.74-.51-1.68-1.14-2.62-1.07-.18.48-.06,1.26-.09,1.78-.18,2.67-.36,5.34-.54,8.01,0,0,18.85,10.49,28.11,6.73,9.25-3.75,30.08-10.23,30.08-10.23.21-.93.32-1.79.37-2.6Z"/><path class="cls-3" d="m168.24,170.76c-28.84-14.17-48.21,2.71-48.21,2.71,0,0-12.19,33.86-12.83,41.64l5.82,43.37s1.88.85,4.76.35c2.97-.52,4.61-1.67,4.61-1.67l-1.86-37.9,4.04-11.76,1.8,13.53-2.18,34.61s9.76,2.44,22.93,2.44c12.41,0,22.42-2.44,22.42-2.44,0,0,.37-32,1.29-48.75.92-16.75-2.59-36.13-2.59-36.13Z"/><path class="cls-13" d="m151.56,165.52c-.16-.12-.3-.26-.43-.4-.29-.33-.52-.7-.85-.99-.32-.29-.71-.51-1.12-.64-.55-.17-1.14-.11-1.71-.13-.7-.03-1.39-.08-2.09-.09-.76-.01-1.5-.01-2.26-.02-.96,0-1.89.12-2.73.61-.8.47-1.47,1.12-2.08,1.81,1.26,5.01,11.33,2.89,12.67,1.94,1.46-1.03.79-1.95.6-2.1Z"/><path class="cls-13" d="m147.12,258.07c12.41,0,22.42-2.44,22.42-2.44,0,0,.01-.94.03-2.55-5.32.59-10.59,1.15-16.02,1.14-6.39-.02-22.18,1.73-23.65-6.18-.62-3.31.21-7.25.21-10.61,0-3.77-.06-7.57-.31-11.33-.15-2.36-.52-4.69-.96-7.01-.46-2.41-1-4.81-1.46-7.22-.23-1.21-.45-2.42-.63-3.63-.11-.74-.21-1.48-.29-2.22-.04-.37-.08-.74-.11-1.11-.02-.29.01-.67-.18-.9-.02-.02-.05-.05-.08-.05-.04,0-.08.04-.1.07-.82,1.09-1.24,2.55-1.56,3.87l.13-.39,1.8,13.53-2.18,34.61s9.76,2.44,22.93,2.44Z"/><path class="cls-11" d="m180.69,373.68c-.29-.34-.61-.64-.93-.91-1.44-1.19-3.11-1.94-4.8-2.49-1.8-.59-3.64-1.08-5.49-1.43-.31-.06-.63-.12-.94-.17-.22-.04-.51-.14-.74-.11-.18.02-.34.15-.51.24-.44.25-.86.51-1.3.76-1.19.69-2.48,1.06-3.8,1.24-1.01.14-2.03.17-3.04.09-.88-.07-1.83-.23-2.56-.86-.21-.17-1.42-1.39-1.48-.58-.21,2.71.08,5.42.27,8.11.09,1.24.93,1.34,2.03,1.36,6.18.14,12.35.22,18.53.31,1.14.02,2.29.07,3.43,0,.96-.05,2.09-.59,2.4-1.76.4-1.48-.2-2.8-1.07-3.82Z"/><path class="cls-7" d="m155.34,377.13c.01.15.02.31.03.46.09,1.24.93,1.34,2.03,1.36,6.18.14,12.35.22,18.53.31,1.14.02,2.29.07,3.43,0,.96-.05,2.09-.59,2.4-1.76,0,0,0-.01,0-.02l-26.42-.37Z"/><path class="cls-11" d="m101.7,377.51c.3,1.17,1.38,1.7,2.29,1.76,1.09.06,2.18.01,3.28,0,5.9-.09,11.8-.17,17.7-.31,1.05-.02,1.86-.12,1.94-1.36.18-2.7.46-5.4.26-8.11-.06-.81-1.22.41-1.42.58-.7.63-1.6.79-2.45.86-.97.08-1.94.05-2.91-.09-1.26-.19-2.49-.56-3.63-1.24-.41-.25-.82-.52-1.24-.76-.16-.09-.32-.22-.49-.24-.21-.03-.49.08-.7.11-.3.05-.6.11-.9.17-1.77.35-3.52.84-5.24,1.43-1.61.55-3.21,1.3-4.58,2.49-.31.27-.61.57-.89.91-.83,1.02-1.4,2.35-1.02,3.82Z"/><path class="cls-7" d="m126.94,377.13c-.01.15-.02.31-.03.46-.08,1.24-.89,1.34-1.94,1.36-5.9.14-11.8.22-17.7.31-1.09.02-2.19.07-3.27,0-.92-.05-1.99-.59-2.29-1.76,0,0,0-.01,0-.02l25.25-.37Z"/><path class="cls-4" d="m159.23,149.29c-.51-4.07-.54-8.71-1.51-12.67-.41-1.69-1.3-5.31-3.03-6.5-2.13-1.46-8.59-.21-10.96-.1-2.02.09-5.17-.34-6.98.87-2.36,1.57-2.81,5.97-3.36,8.89-1.54-1.55-4.37-.45-4.53,2.05-.11,1.74.78,3.68,2.15,4.86.34.29.72.55,1.15.72.31.13,1.08.09,1.3.25,0,0-.01,1.7.12,2.65.53,3.77,1.66,6.81,4.34,9.67.23.25,1.62,1.23,1.62,1.23.23.91.28,1.85.26,2.78-.01.72-.25,1.72.18,2.38.34.52,2.05.56,2.66.62,2.09.21,4.2.02,6.28-.24.49-.06,1.3-.09,1.58-.55.28-.48-.62-4.6-.43-4.63,3.32-.58,6.32-2,8-4.53,1.55-2.34,1.48-5.08,1.15-7.72Z"/><path class="cls-9" d="m157.46,157.82c-3.53.73-7.11,1.41-10.7.61-5.3-1.19-7.54-4.94-8.42-9.96-.89-5.06-4.2-15.77,2.16-18.42.1,0,.2-.02.3-.02-1.48.02-2.99.16-4.05.87-2.36,1.57-2.81,5.97-3.36,8.89-1.54-1.55-4.37-.45-4.53,2.05-.11,1.74.78,3.68,2.15,4.86.34.29.72.55,1.15.72.31.13,1.08.09,1.3.25,0,0-.01,1.7.12,2.65.53,3.77,1.66,6.81,4.34,9.67.23.25,1.62,1.23,1.62,1.23.23.91.28,1.85.26,2.78-.01.72-.25,1.72.18,2.38.34.52,2.05.56,2.66.62,2.09.21,4.2.02,6.28-.24.49-.06,1.3-.09,1.58-.55.28-.48-.62-4.6-.43-4.63,2.94-.51,5.64-1.69,7.38-3.73Z"/><path class="cls-14" d="m150.15,147.09c-4.65.38-7.47,3.52-9.33,7.67-3.41-1.35-4.13-6.07-4.99-9.27-.79-2.95-1.84-6.04-2.14-9.1-.05-.53-.83-.55-.8,0,.05.88.16,1.77.29,2.67,0,.03-.03.05-.03.08.4,8.07-1.82,19.71,7.78,22.39,4.48,1.25,9.62,1.14,13.95-.88,3.24-1.5,4.55-5.19,4.55-8.62,0,0-5.01-5.3-9.28-4.95Z"/><path class="cls-4" d="m154.07,152.01c-1.41-.11-2.83-.06-4.23.08-1.15.12-2.41.11-3.45.66-.26.14-.39.4-.35.68.29,2.12,1.56,4.09,3.9,4.03,1.27-.04,2.65-.39,3.49-1.43.86-1.06,1.08-2.61.83-3.91,0-.03-.01-.05-.03-.07-.02-.02-.06-.03-.09-.03-.02,0-.05,0-.07,0Z"/><path class="cls-7" d="m86.05,91.6c-17.4,0-31.55,14.15-31.55,31.55s14.15,31.55,31.55,31.55,31.55-14.15,31.55-31.55-14.15-31.55-31.55-31.55Zm0,61c-16.23,0-29.44-13.21-29.44-29.44s13.21-29.44,29.44-29.44,29.44,13.21,29.44,29.44-13.21,29.44-29.44,29.44Z"/><circle class="cls-7" cx="86.05" cy="98.78" r="2.25"/><circle class="cls-7" cx="86.05" cy="147.52" r="2.25"/><circle class="cls-7" cx="110.42" cy="123.15" r="2.25"/><circle class="cls-7" cx="61.68" cy="123.15" r="2.25"/><path class="cls-7" d="m98.96,121.51h-11.27v-16.99c0-.91-.74-1.64-1.64-1.64s-1.64.74-1.64,1.64v18.63c0,.91.74,1.64,1.64,1.64h12.91c.91,0,1.64-.74,1.64-1.64s-.74-1.64-1.64-1.64Z"/><path class="cls-7" d="m311.46,55.62c1.83-2.68,2.81-6,2.53-9.55-.57-7.26-6.47-13.12-13.74-13.62-8.68-.6-15.9,6.26-15.9,14.81,0,3.1.95,5.98,2.58,8.36l11.06,17.3c.56.88,1.85.88,2.42,0l11.06-17.3Zm-12.27-19.24c6.01,0,10.88,4.87,10.88,10.88s-4.87,10.88-10.88,10.88-10.88-4.87-10.88-10.88,4.87-10.88,10.88-10.88Z"/></g></g></g></svg>